<?xml version="1.0" encoding="UTF-8" standalone="no"?>
<!-- Generator: Adobe Illustrator 17.0.0, SVG Export Plug-In . SVG Version: 6.00 Build 0)  -->

<svg
   xmlns:dc="http://purl.org/dc/elements/1.1/"
   xmlns:cc="http://creativecommons.org/ns#"
   xmlns:rdf="http://www.w3.org/1999/02/22-rdf-syntax-ns#"
   xmlns:svg="http://www.w3.org/2000/svg"
   xmlns="http://www.w3.org/2000/svg"
   xmlns:sodipodi="http://sodipodi.sourceforge.net/DTD/sodipodi-0.dtd"
   xmlns:inkscape="http://www.inkscape.org/namespaces/inkscape"
   version="1.1"
   id="Capa_1"
   x="0px"
   y="0px"
   width="64px"
   height="64px"
   viewBox="0 0 64 64"
   style="enable-background:new 0 0 64 64;"
   xml:space="preserve"
   inkscape:version="0.48.4 r9939"
   sodipodi:docname="animate.svg"><metadata
   id="metadata9"><rdf:RDF><cc:Work
       rdf:about=""><dc:format>image/svg+xml</dc:format><dc:type
         rdf:resource="http://purl.org/dc/dcmitype/StillImage" /></cc:Work></rdf:RDF></metadata><defs
   id="defs7" /><sodipodi:namedview
   pagecolor="#ffffff"
   bordercolor="#666666"
   borderopacity="1"
   objecttolerance="10"
   gridtolerance="10"
   guidetolerance="10"
   inkscape:pageopacity="0"
   inkscape:pageshadow="2"
   inkscape:window-width="1920"
   inkscape:window-height="1178"
   id="namedview5"
   showgrid="false"
   inkscape:zoom="3.6875"
   inkscape:cx="-14.508475"
   inkscape:cy="32"
   inkscape:window-x="1912"
   inkscape:window-y="-8"
   inkscape:window-maximized="1"
   inkscape:current-layer="Capa_1" />
<path
   d="M 0.96395421,16.21044 H 14.132113 c 0.560741,0 1.019501,-0.45844 1.019501,-1.018862 V 1.229302 c 0,-0.5591433 -0.459079,-1.018862 -1.019501,-1.018862 H 0.96395421 c -0.56202046,0 -1.02014067,0.4597187 -1.02014067,1.018862 v 13.962276 c 0,0.560422 0.45812021,1.018862 1.02014067,1.018862 z M 12.664722,1.4569233 c 0,-0.1691173 0.138427,-0.3056267 0.305946,-0.3056267 h 0.955882 c 0.168798,0 0.305307,0.1365094 0.305307,0.3056267 V 2.441259 c 0,0.169117 -0.136509,0.305626 -0.305307,0.305626 h -0.955882 c -0.167519,0 -0.305946,-0.136189 -0.305946,-0.305626 V 1.4569233 z m 0,2.5041557 c 0,-0.169117 0.138427,-0.305946 0.305946,-0.305946 h 0.955882 c 0.168798,0 0.305307,0.136829 0.305307,0.305946 v 0.984336 c 0,0.168798 -0.136509,0.306585 -0.305307,0.306585 h -0.955882 c -0.167519,0 -0.305946,-0.137787 -0.305946,-0.306585 V 3.961079 z m 0,2.506074 c 0,-0.168798 0.138427,-0.306585 0.305946,-0.306585 h 0.955882 c 0.168798,0 0.305307,0.137787 0.305307,0.306585 v 0.984655 c 0,0.167519 -0.136509,0.305307 -0.305307,0.305307 h -0.955882 c -0.167519,0 -0.305946,-0.137788 -0.305946,-0.305307 V 6.467153 z m 0,2.504156 c 0,-0.169117 0.138427,-0.306585 0.305946,-0.306585 h 0.955882 c 0.168798,0 0.305307,0.137468 0.305307,0.306585 v 0.984655 c 0,0.168798 -0.136509,0.305626 -0.305307,0.305626 h -0.955882 c -0.167519,0 -0.305946,-0.136828 -0.305946,-0.305626 V 8.971309 z m 0,2.504156 c 0,-0.169117 0.138427,-0.305626 0.305946,-0.305626 h 0.955882 c 0.168798,0 0.305307,0.136189 0.305307,0.305626 v 0.985295 c 0,0.168158 -0.136509,0.304987 -0.305307,0.304987 h -0.955882 c -0.167519,0 -0.305946,-0.136829 -0.305946,-0.304987 v -0.985295 z m 0,2.504156 c 0,-0.168158 0.138427,-0.305626 0.305946,-0.305626 h 0.955882 c 0.168798,0 0.305307,0.137468 0.305307,0.305626 v 0.986254 c 0,0.16688 -0.136509,0.304987 -0.305307,0.304987 h -0.955882 c -0.167519,0 -0.305946,-0.137788 -0.305946,-0.304987 V 13.979621 z M 3.4799389,2.195734 c 0,-0.169117 0.1377881,-0.3056267 0.3065854,-0.3056267 h 7.5236577 c 0.167839,0 0.305307,0.1365097 0.305307,0.3056267 v 4.87468 c 0,0.167519 -0.137468,0.306586 -0.305307,0.306586 H 3.7865243 C 3.617727,7.377 3.4799389,7.237933 3.4799389,7.070414 v -4.87468 z m 0,7.516624 c 0,-0.167839 0.1377881,-0.304668 0.3065854,-0.304668 h 7.5236577 c 0.167839,0 0.305307,0.136829 0.305307,0.304668 v 4.506074 c 0,0.168159 -0.137468,0.305627 -0.305307,0.305627 H 3.7865243 c -0.1687973,0 -0.3065854,-0.137468 -0.3065854,-0.305627 V 9.712358 z M 0.86357054,1.4569233 c 0,-0.1691173 0.13746806,-0.3056267 0.30594636,-0.3056267 h 0.956202 c 0.1678387,0 0.3049874,0.1365094 0.3049874,0.3056267 V 2.441259 c 0,0.169117 -0.1371487,0.305626 -0.3049874,0.305626 h -0.956202 c -0.1684783,0 -0.30594636,-0.136189 -0.30594636,-0.305626 V 1.4569233 z m 0,2.5041557 c 0,-0.169117 0.13746806,-0.305946 0.30594636,-0.305946 h 0.956202 c 0.1678387,0 0.3049874,0.136829 0.3049874,0.305946 V 4.945415 C 2.4307063,5.114213 2.2935576,5.252 2.1257189,5.252 H 1.1695169 C 1.0010386,5.252 0.86357054,5.114213 0.86357054,4.945415 V 3.961079 z m 0,2.506074 c 0,-0.168798 0.13746806,-0.306585 0.30594636,-0.306585 h 0.956202 c 0.1678387,0 0.3049874,0.137787 0.3049874,0.306585 v 0.984655 c 0,0.167519 -0.1371487,0.305307 -0.3049874,0.305307 h -0.956202 c -0.1684783,0 -0.30594636,-0.137788 -0.30594636,-0.305307 V 6.467153 z m 0,2.504156 c 0,-0.169117 0.13746806,-0.306585 0.30594636,-0.306585 h 0.956202 c 0.1678387,0 0.3049874,0.137468 0.3049874,0.306585 v 0.984655 c 0,0.168798 -0.1371487,0.305626 -0.3049874,0.305626 h -0.956202 c -0.1684783,0 -0.30594636,-0.136828 -0.30594636,-0.305626 V 8.971309 z m 0,2.504156 c 0,-0.169117 0.13746806,-0.305626 0.30594636,-0.305626 h 0.956202 c 0.1678387,0 0.3049874,0.136189 0.3049874,0.305626 v 0.985295 c 0,0.168158 -0.1371487,0.304987 -0.3049874,0.304987 h -0.956202 c -0.1684783,0 -0.30594636,-0.136829 -0.30594636,-0.304987 v -0.985295 z m 0,2.504156 c 0,-0.168158 0.13746806,-0.305626 0.30594636,-0.305626 h 0.956202 c 0.1678387,0 0.3049874,0.137468 0.3049874,0.305626 v 0.986254 c 0,0.16688 -0.1371487,0.304987 -0.3049874,0.304987 h -0.956202 c -0.1684783,0 -0.30594636,-0.137788 -0.30594636,-0.304987 v -0.986254 z"
   id="path3"
   inkscape:connector-curvature="0"
   style="fill:#00a9ea;fill-opacity:1" />
</svg>