<?xml version="1.0" encoding="UTF-8" standalone="no"?>
<!-- Generator: Adobe Illustrator 16.0.4, SVG Export Plug-In . SVG Version: 6.00 Build 0)  -->

<svg
   xmlns:dc="http://purl.org/dc/elements/1.1/"
   xmlns:cc="http://creativecommons.org/ns#"
   xmlns:rdf="http://www.w3.org/1999/02/22-rdf-syntax-ns#"
   xmlns:svg="http://www.w3.org/2000/svg"
   xmlns="http://www.w3.org/2000/svg"
   xmlns:sodipodi="http://sodipodi.sourceforge.net/DTD/sodipodi-0.dtd"
   xmlns:inkscape="http://www.inkscape.org/namespaces/inkscape"
   version="1.1"
   id="Capa_1"
   x="0px"
   y="0px"
   width="216px"
   height="146px"
   viewBox="0 0 216 146"
   enable-background="new 0 0 216 146"
   xml:space="preserve"
   inkscape:version="0.48.4 r9939"
   sodipodi:docname="remove10.svg"><metadata
   id="metadata13"><rdf:RDF><cc:Work
       rdf:about=""><dc:format>image/svg+xml</dc:format><dc:type
         rdf:resource="http://purl.org/dc/dcmitype/StillImage" /></cc:Work></rdf:RDF></metadata><defs
   id="defs11" /><sodipodi:namedview
   pagecolor="#ffffff"
   bordercolor="#666666"
   borderopacity="1"
   objecttolerance="10"
   gridtolerance="10"
   guidetolerance="10"
   inkscape:pageopacity="0"
   inkscape:pageshadow="2"
   inkscape:window-width="862"
   inkscape:window-height="665"
   id="namedview9"
   showgrid="false"
   inkscape:zoom="1.6164384"
   inkscape:cx="1.9025424"
   inkscape:cy="73"
   inkscape:window-x="0"
   inkscape:window-y="0"
   inkscape:window-maximized="0"
   inkscape:current-layer="Capa_1" />
<g
   id="g3"
   transform="matrix(0.12785476,0,0,0.12785476,-5.5412029,-1.1607051)"
   style="fill:#bc0000;fill-opacity:1">
	<path
   d="m 162.18,41.592 c -5.595,-9.586 -13.185,-17.176 -22.771,-22.771 -9.588,-5.595 -20.055,-8.392 -31.408,-8.392 -11.352,0 -21.822,2.797 -31.408,8.392 -9.587,5.594 -17.177,13.184 -22.772,22.771 -5.596,9.587 -8.393,20.057 -8.393,31.408 0,11.352 2.798,21.82 8.392,31.408 5.595,9.585 13.185,17.176 22.772,22.771 9.587,5.595 20.056,8.392 31.408,8.392 11.352,0 21.822,-2.797 31.408,-8.392 9.586,-5.594 17.176,-13.185 22.771,-22.771 5.594,-9.587 8.391,-20.057 8.391,-31.408 0,-11.352 -2.797,-21.822 -8.39,-31.408 z m -15.806,53.65 c -3.965,6.789 -9.342,12.167 -16.132,16.132 -6.789,3.965 -14.203,5.946 -22.242,5.946 -8.038,0 -15.452,-1.981 -22.242,-5.946 C 78.969,107.409 73.592,102.031 69.627,95.242 65.661,88.453 63.679,81.039 63.679,73 c 0,-8.039 1.983,-15.453 5.948,-22.242 3.964,-6.789 9.342,-12.167 16.131,-16.132 6.789,-3.965 14.203,-5.947 22.242,-5.947 8.039,0 15.453,1.982 22.242,5.947 6.79,3.965 12.167,9.343 16.132,16.132 3.965,6.789 5.946,14.203 5.946,22.242 0,8.039 -1.981,15.453 -5.946,22.242 z"
   id="path5"
   inkscape:connector-curvature="0"
   style="fill:#bc0000;fill-opacity:1" />
	<path
   d="m 135.62,59.964 c 0,-0.706 -0.271,-1.33 -0.815,-1.874 L 122.909,46.195 c -0.543,-0.543 -1.167,-0.814 -1.873,-0.814 -0.707,0 -1.331,0.271 -1.874,0.814 L 108,57.357 96.838,46.195 c -0.543,-0.543 -1.168,-0.814 -1.874,-0.814 -0.706,0 -1.331,0.271 -1.874,0.814 L 81.195,58.09 c -0.543,0.544 -0.814,1.168 -0.814,1.874 0,0.706 0.271,1.331 0.814,1.874 L 92.357,73 81.195,84.162 c -0.543,0.543 -0.814,1.167 -0.814,1.873 0,0.707 0.271,1.331 0.814,1.874 L 93.09,99.805 c 0.543,0.543 1.168,0.814 1.874,0.814 0.706,0 1.331,-0.271 1.874,-0.814 L 108,88.643 119.162,99.805 c 0.543,0.543 1.167,0.814 1.874,0.814 0.706,0 1.33,-0.271 1.873,-0.814 l 11.896,-11.896 c 0.545,-0.543 0.815,-1.167 0.815,-1.874 0,-0.706 -0.271,-1.33 -0.815,-1.873 L 123.645,73 134.805,61.838 c 0.545,-0.543 0.815,-1.168 0.815,-1.874 z"
   id="path7"
   inkscape:connector-curvature="0"
   style="fill:#bc0000;fill-opacity:1" />
</g>
</svg>