<?xml version="1.0" encoding="UTF-8" standalone="no"?>
<!-- Generator: Adobe Illustrator 16.0.4, SVG Export Plug-In . SVG Version: 6.00 Build 0)  -->

<svg
   xmlns:dc="http://purl.org/dc/elements/1.1/"
   xmlns:cc="http://creativecommons.org/ns#"
   xmlns:rdf="http://www.w3.org/1999/02/22-rdf-syntax-ns#"
   xmlns:svg="http://www.w3.org/2000/svg"
   xmlns="http://www.w3.org/2000/svg"
   xmlns:sodipodi="http://sodipodi.sourceforge.net/DTD/sodipodi-0.dtd"
   xmlns:inkscape="http://www.inkscape.org/namespaces/inkscape"
   version="1.1"
   id="Layer_1"
   x="0px"
   y="0px"
   width="32px"
   height="32px"
   viewBox="0 0 32 32"
   enable-background="new 0 0 32 32"
   xml:space="preserve"
   inkscape:version="0.48.4 r9939"
   sodipodi:docname="close.svg"><metadata
   id="metadata9"><rdf:RDF><cc:Work
       rdf:about=""><dc:format>image/svg+xml</dc:format><dc:type
         rdf:resource="http://purl.org/dc/dcmitype/StillImage" /></cc:Work></rdf:RDF></metadata><defs
   id="defs7" /><sodipodi:namedview
   pagecolor="#ffffff"
   bordercolor="#666666"
   borderopacity="1"
   objecttolerance="10"
   gridtolerance="10"
   guidetolerance="10"
   inkscape:pageopacity="0"
   inkscape:pageshadow="2"
   inkscape:window-width="1311"
   inkscape:window-height="905"
   id="namedview5"
   showgrid="false"
   inkscape:zoom="7.375"
   inkscape:cx="-18.453348"
   inkscape:cy="21.423729"
   inkscape:window-x="0"
   inkscape:window-y="0"
   inkscape:window-maximized="0"
   inkscape:current-layer="Layer_1" />
<path
   d="M 7.7323165,2.21718 C 7.8736285,2.079757 7.954845,1.887627 7.9573595,1.6863355 7.9593595,1.4847825 7.881675,1.2910815 7.743129,1.150256 L 6.782108,0.1720684 c -0.134523,-0.136899 -0.3158145,-0.212547 -0.5043981,-0.2101915 -0.1880805,0.00235 -0.3673605,0.082192 -0.498363,0.222494 L 3.9697004,2.115356 2.1857013,0.1801829 C 2.0451438,0.0278399 1.8525372,-0.0603721 1.6496215,-0.0642986 1.4467057,-0.0687486 1.2503275,0.0110874 1.1042382,0.1574099 L 0.1751506,1.086649 c -0.1398032,0.139517 -0.2182539,0.332432 -0.217751,0.534247 5.029e-4,0.2015535 0.079959,0.393945 0.2202655,0.532939 L 2.1253546,4.082464 0.4009478,5.922095 C 0.1379368,6.2027 0.1316507,6.648473 0.386364,6.937453 l 0.671357,0.75962 c 0.1279853,0.145275 0.3062595,0.230608 0.4953458,0.237938 0.1888349,0.0073 0.3728923,-0.06387 0.5109353,-0.198674 L 3.955368,5.894873 5.8007199,7.72194 C 5.9377569,7.857792 6.1208084,7.930561 6.309895,7.924279 6.4989815,7.918779 6.6777585,7.834239 6.8072525,7.690006 L 7.484141,6.936929 C 7.7411175,6.650043 7.7388545,6.20427 7.478106,5.921572 L 5.7984564,4.098693 7.732316,2.21718 z"
   id="path3"
   inkscape:connector-curvature="0"
   style="fill:#fafafa;fill-opacity:1" />
</svg>