<?xml version="1.0" encoding="UTF-8" standalone="no"?>
<!-- Generator: Adobe Illustrator 16.0.4, SVG Export Plug-In . SVG Version: 6.00 Build 0)  -->

<svg
   xmlns:dc="http://purl.org/dc/elements/1.1/"
   xmlns:cc="http://creativecommons.org/ns#"
   xmlns:rdf="http://www.w3.org/1999/02/22-rdf-syntax-ns#"
   xmlns:svg="http://www.w3.org/2000/svg"
   xmlns="http://www.w3.org/2000/svg"
   xmlns:sodipodi="http://sodipodi.sourceforge.net/DTD/sodipodi-0.dtd"
   xmlns:inkscape="http://www.inkscape.org/namespaces/inkscape"
   version="1.1"
   id="Capa_1"
   x="0px"
   y="0px"
   width="32px"
   height="32px"
   viewBox="0 0 32 32"
   enable-background="new 0 0 32 32"
   xml:space="preserve"
   inkscape:version="0.48.4 r9939"
   sodipodi:docname="network11.svg"><metadata
   id="metadata11"><rdf:RDF><cc:Work
       rdf:about=""><dc:format>image/svg+xml</dc:format><dc:type
         rdf:resource="http://purl.org/dc/dcmitype/StillImage" /></cc:Work></rdf:RDF></metadata><defs
   id="defs9" /><sodipodi:namedview
   pagecolor="#ffffff"
   bordercolor="#666666"
   borderopacity="1"
   objecttolerance="10"
   gridtolerance="10"
   guidetolerance="10"
   inkscape:pageopacity="0"
   inkscape:pageshadow="2"
   inkscape:window-width="762"
   inkscape:window-height="614"
   id="namedview7"
   showgrid="false"
   inkscape:zoom="1"
   inkscape:cx="16"
   inkscape:cy="16"
   inkscape:window-x="0"
   inkscape:window-y="0"
   inkscape:window-maximized="0"
   inkscape:current-layer="Capa_1" />
<path
   d="M 19.2,10.0184 V 7.9192 C 21.0248,7.5488 22.4,5.9352 22.4,4 c 0,-2.2096 -1.7904,-4 -4,-4 -2.2096,0 -4,1.7904 -4,4 0,1.9352 1.3752,3.5488 3.2,3.9192 V 9.6464 C 17.3368,9.6176 17.0704,9.6 16.8,9.6 c -1.7008,0 -3.26,0.592 -4.492,1.5776 L 7.3352,6.204 C 7.7528,5.5712 8,4.8152 8,4 8,1.7904 6.2088,0 4,0 1.7912,0 0,1.7904 0,4 0,5.9352 1.3744,7.5488 3.2,7.9192 V 14.48 C 1.3744,14.8504 0,16.464 0,18.4 c 0,2.2112 1.7912,4 4,4 2.2088,0 4,-1.7888 4,-4 C 8,16.464 6.6256,14.8496 4.8,14.4816 V 7.92 C 5.3104,7.816 5.7832,7.6136 6.2032,7.336 l 4.9736,4.9736 C 10.192,13.54 9.6,15.0992 9.6,16.8 c 0,3.9768 3.2216,7.1984 7.2,7.2 3.9768,-0.0016 7.1984,-3.2232 7.2,-7.2 -0.0016,-3.1352 -2.0056,-5.7928 -4.8,-6.7816 z m -2.4,12.288 C 13.7592,22.2992 11.2992,19.8392 11.292,16.8 c 0.0072,-3.0408 2.4672,-5.5008 5.508,-5.5072 3.0392,0.0064 5.4992,2.4664 5.5064,5.5072 -0.0072,3.0392 -2.4672,5.4992 -5.5064,5.5064 z"
   id="path3"
   inkscape:connector-curvature="0"
   style="fill:#1bbcf1;fill-opacity:1" />
<path
   d="M 16,20 H 13.6 V 17.6 L 16,20 z m 4.8,-4.8 -4,4 -2.4,-2.4008 4,-4 2.4,2.4008 z"
   id="path5"
   inkscape:connector-curvature="0"
   style="fill:#1bbcf1;fill-opacity:1" />
</svg>