<?xml version="1.0" encoding="UTF-8" standalone="no"?>
<!-- Generator: Adobe Illustrator 16.0.0, SVG Export Plug-In . SVG Version: 6.00 Build 0)  -->

<svg
   xmlns:dc="http://purl.org/dc/elements/1.1/"
   xmlns:cc="http://creativecommons.org/ns#"
   xmlns:rdf="http://www.w3.org/1999/02/22-rdf-syntax-ns#"
   xmlns:svg="http://www.w3.org/2000/svg"
   xmlns="http://www.w3.org/2000/svg"
   xmlns:sodipodi="http://sodipodi.sourceforge.net/DTD/sodipodi-0.dtd"
   xmlns:inkscape="http://www.inkscape.org/namespaces/inkscape"
   version="1.1"
   id="Layer_1"
   x="0px"
   y="0px"
   width="512px"
   height="512px"
   viewBox="0 0 512 512"
   enable-background="new 0 0 512 512"
   xml:space="preserve"
   inkscape:version="0.48.4 r9939"
   sodipodi:docname="edit_16.svg"><metadata
   id="metadata9"><rdf:RDF><cc:Work
       rdf:about=""><dc:format>image/svg+xml</dc:format><dc:type
         rdf:resource="http://purl.org/dc/dcmitype/StillImage" /></cc:Work></rdf:RDF></metadata><defs
   id="defs7" /><sodipodi:namedview
   pagecolor="#ffffff"
   bordercolor="#666666"
   borderopacity="1"
   objecttolerance="10"
   gridtolerance="10"
   guidetolerance="10"
   inkscape:pageopacity="0"
   inkscape:pageshadow="2"
   inkscape:window-width="1089"
   inkscape:window-height="730"
   id="namedview5"
   showgrid="false"
   inkscape:zoom="1"
   inkscape:cx="84.5"
   inkscape:cy="256"
   inkscape:window-x="2120"
   inkscape:window-y="266"
   inkscape:window-maximized="0"
   inkscape:current-layer="Layer_1"
   showguides="true"
   inkscape:guide-bbox="true" />
<path
   d="M 0.58117463,5.82862 1.2881946,6.53615 5.5313166,2.29347 4.8242966,1.58594 c -0.781238,-0.78125 -2.047812,-0.78125 -2.82905,0 L 0.58120563,3.0005 c -0.780269,0.78078 -0.780269,2.04687 -3.1e-5,2.82812 z m 9.90025337,8.48485 c 0.19531,0.19532 0.19531,0.51172 0,0.70703 -0.195309,0.19628 -0.5117107,0.19628 -0.7070202,0 L 1.9952146,7.24318 2.7032036,6.53565 10.481428,14.31347 z m 3.536071,-3.53515 c 0.195309,0.19532 0.195309,0.51172 0,0.70703 -0.19531,0.19532 -0.511711,0.19532 -0.707021,0 L 5.5313166,3.70753 6.2383376,3.0005 14.017499,10.77832 z M 4.8252656,4.41409 12.603458,12.19238 c 0.390619,0.38966 0.38965,1.02344 0,1.41406 -0.390619,0.39063 -1.023422,0.3926 -1.415009,-9.6e-4 L 3.4102556,5.82865 4.8252656,4.41409 z M 11.190386,15.7256 c 0.239246,-0.23925 0.354495,-0.54297 0.397463,-0.85547 0.101561,0.0156 0.20409,0.0303 0.308589,0.0303 0.534179,0 1.036109,-0.209 1.41404,-0.5869 0.377932,-0.37891 0.585929,-0.87988 0.585929,-1.41406 0,-0.0977 -0.01466,-0.19238 -0.02831,-0.28713 0.323245,-0.0439 0.622053,-0.18556 0.856424,-0.41994 0.02247,-0.0225 0.03028,-0.0528 0.05078,-0.0772 L 15.996,17 11.124012,15.78028 c 0.02147,-0.0195 0.04587,-0.0342 0.06637,-0.0547 z"
   id="path3"
   inkscape:connector-curvature="0"
   style="fill:#00a9ea;fill-opacity:1" />
</svg>