<?xml version="1.0" encoding="UTF-8" standalone="no"?>
<!-- Generator: Adobe Illustrator 13.0.0, SVG Export Plug-In . SVG Version: 6.00 Build 14948)  -->

<svg
   xmlns:dc="http://purl.org/dc/elements/1.1/"
   xmlns:cc="http://creativecommons.org/ns#"
   xmlns:rdf="http://www.w3.org/1999/02/22-rdf-syntax-ns#"
   xmlns:svg="http://www.w3.org/2000/svg"
   xmlns="http://www.w3.org/2000/svg"
   xmlns:sodipodi="http://sodipodi.sourceforge.net/DTD/sodipodi-0.dtd"
   xmlns:inkscape="http://www.inkscape.org/namespaces/inkscape"
   version="1.1"
   id="Layer_1"
   x="0px"
   y="0px"
   width="32px"
   height="32px"
   viewBox="0 0 32 32"
   enable-background="new 0 0 32 32"
   xml:space="preserve"
   inkscape:version="0.48.4 r9939"
   sodipodi:docname="expand.svg"><metadata
   id="metadata18"><rdf:RDF><cc:Work
       rdf:about=""><dc:format>image/svg+xml</dc:format><dc:type
         rdf:resource="http://purl.org/dc/dcmitype/StillImage" /><dc:title></dc:title></cc:Work></rdf:RDF></metadata><defs
   id="defs16" /><sodipodi:namedview
   pagecolor="#ffffff"
   bordercolor="#666666"
   borderopacity="1"
   objecttolerance="10"
   gridtolerance="10"
   guidetolerance="10"
   inkscape:pageopacity="0"
   inkscape:pageshadow="2"
   inkscape:window-width="1920"
   inkscape:window-height="1138"
   id="namedview14"
   showgrid="false"
   inkscape:zoom="1"
   inkscape:cx="16.077208"
   inkscape:cy="15.959968"
   inkscape:window-x="-8"
   inkscape:window-y="-8"
   inkscape:window-maximized="1"
   inkscape:current-layer="Layer_1" />
<g
   id="Layer_1_1_">
</g>
<g
   id="plus_x5F_alt"
   transform="scale(0.5,0.5)">
	<g
   id="XMLID_1_">
		<g
   id="g6">
			<polygon
   points="24,14 24,18 18,18 18,24 14,24 14,18 8,18 8,14 14,14 14,8 18,8 18,14 "
   id="polygon8"
   style="fill:#ffffff" />
			<path
   d="M 16,0 C 24.84,0 32,7.16 32,16 32,24.84 24.84,32 16,32 7.16,32 0,24.84 0,16 0,7.16 7.16,0 16,0 z m 8,18 V 14 H 18 V 8 h -4 v 6 H 8 v 4 h 6 v 6 h 4 v -6 h 6 z"
   id="path10"
   inkscape:connector-curvature="0"
   style="fill:#00a9ea" />
		</g>
		<g
   id="g12">
		</g>
	</g>
</g>
</svg>