<?xml version="1.0" encoding="UTF-8" standalone="no"?>
<!-- Generator: Adobe Illustrator 16.0.0, SVG Export Plug-In . SVG Version: 6.00 Build 0)  -->

<svg
   xmlns:dc="http://purl.org/dc/elements/1.1/"
   xmlns:cc="http://creativecommons.org/ns#"
   xmlns:rdf="http://www.w3.org/1999/02/22-rdf-syntax-ns#"
   xmlns:svg="http://www.w3.org/2000/svg"
   xmlns="http://www.w3.org/2000/svg"
   xmlns:sodipodi="http://sodipodi.sourceforge.net/DTD/sodipodi-0.dtd"
   xmlns:inkscape="http://www.inkscape.org/namespaces/inkscape"
   version="1.1"
   id="Layer_4"
   x="0px"
   y="0px"
   width="100px"
   height="100px"
   viewBox="0 0 100 100"
   enable-background="new 0 0 100 100"
   xml:space="preserve"
   inkscape:version="0.48.4 r9939"
   sodipodi:docname="fit_to_window.svg"><metadata
   id="metadata9"><rdf:RDF><cc:Work
       rdf:about=""><dc:format>image/svg+xml</dc:format><dc:type
         rdf:resource="http://purl.org/dc/dcmitype/StillImage" /></cc:Work></rdf:RDF></metadata><defs
   id="defs7" /><sodipodi:namedview
   pagecolor="#ffffff"
   bordercolor="#666666"
   borderopacity="1"
   objecttolerance="10"
   gridtolerance="10"
   guidetolerance="10"
   inkscape:pageopacity="0"
   inkscape:pageshadow="2"
   inkscape:window-width="1038"
   inkscape:window-height="832"
   id="namedview5"
   showgrid="false"
   inkscape:zoom="2.36"
   inkscape:cx="50"
   inkscape:cy="66.949153"
   inkscape:window-x="660"
   inkscape:window-y="0"
   inkscape:window-maximized="0"
   inkscape:current-layer="Layer_4" />
<path
   d="M 16,10.735187 V 0.5160693 H 0 V 10.735187 h 6.0732833 v 0.760777 C 4.3603747,11.57724 3.176862,11.74858 3.176862,11.948476 c 0,0.278 2.2938033,0.503524 5.1243247,0.503524 2.8305213,0 5.1243253,-0.225524 5.1243253,-0.503524 0,-0.222107 -1.465906,-0.410043 -3.4985513,-0.476919 v -0.73637 H 16 z M 1.0507367,9.859451 V 1.3044273 H 14.948775 V 9.859451 H 1.0507367 z M 8,1.6288007 9.712176,3.3409773 9.393416,3.6594933 8,2.2658327 6.6065837,3.6594933 6.287824,3.3409773 8,1.6288007 z M 9.393416,7.429454 9.712176,7.74797 8,9.459902 6.287824,7.747725 6.6065837,7.429209 8,8.823114 9.393416,7.429454 z m 3.795833,-3.186381 1.712176,1.711932 -1.712176,1.71242 -0.318516,-0.319004 1.39366,-1.393416 -1.39366,-1.393416 0.318516,-0.318516 z m -10.0275197,0.318516 -1.39366,1.393416 1.39366,1.393416 -0.318516,0.319004 -1.712176,-1.71242 1.712176,-1.711932 0.318516,0.318516 z"
   id="path3"
   inkscape:connector-curvature="0"
   style="fill:#1bbcf1;fill-opacity:1" />
</svg>