<?xml version="1.0" encoding="UTF-8" standalone="no"?>
<svg
   xmlns:dc="http://purl.org/dc/elements/1.1/"
   xmlns:cc="http://creativecommons.org/ns#"
   xmlns:rdf="http://www.w3.org/1999/02/22-rdf-syntax-ns#"
   xmlns:svg="http://www.w3.org/2000/svg"
   xmlns="http://www.w3.org/2000/svg"
   xmlns:sodipodi="http://sodipodi.sourceforge.net/DTD/sodipodi-0.dtd"
   xmlns:inkscape="http://www.inkscape.org/namespaces/inkscape"
   enable-background="new 0 0 500 500"
   height="500px"
   id="Layer_1"
   version="1.1"
   viewBox="0 0 500 500"
   width="500px"
   xml:space="preserve"
   inkscape:version="0.48.4 r9939"
   sodipodi:docname="form.svg"><metadata
     id="metadata27"><rdf:RDF><cc:Work
         rdf:about=""><dc:format>image/svg+xml</dc:format><dc:type
           rdf:resource="http://purl.org/dc/dcmitype/StillImage" /></cc:Work></rdf:RDF></metadata><defs
     id="defs25" /><sodipodi:namedview
     pagecolor="#ffffff"
     bordercolor="#666666"
     borderopacity="1"
     objecttolerance="10"
     gridtolerance="10"
     guidetolerance="10"
     inkscape:pageopacity="0"
     inkscape:pageshadow="2"
     inkscape:window-width="1248"
     inkscape:window-height="804"
     id="namedview23"
     showgrid="false"
     inkscape:zoom="1"
     inkscape:cx="78.5"
     inkscape:cy="250"
     inkscape:window-x="2379"
     inkscape:window-y="195"
     inkscape:window-maximized="0"
     inkscape:current-layer="Layer_1" /><g
     id="g3"
     transform="matrix(0.11320755,0,0,0.10958904,-16.301887,-15.45205)"
     style="fill:#00a9ea;fill-opacity:1"><g
       id="g5"
       style="fill:#00a9ea;fill-opacity:1"><path
         d="M 324.691,141 H 175.151 C 157.716,141 144,155.135 144,173.138 V 327.554 C 144,345.557 157.716,360 175.151,360 h 149.54 C 342.126,360 356,345.557 356,327.554 V 173.138 C 356,155.135 342.126,141 324.691,141 z M 338,327.554 C 338,334.967 331.87,341 324.691,341 H 175.151 C 167.972,341 162,334.967 162,327.554 V 173.138 C 162,165.725 167.972,160 175.151,160 h 149.54 c 7.179,0 13.309,5.725 13.309,13.138 v 154.416 z"
         id="path7"
         inkscape:connector-curvature="0"
         style="fill:#00a9ea;fill-opacity:1" /><path
         d="M 302.883,219 H 233.44 c -5.136,0 -9.3,3.696 -9.3,9 0,5.304 4.163,9 9.3,9 h 69.443 c 5.136,0 9.3,-3.696 9.3,-9 0,-5.304 -4.164,-9 -9.3,-9 z"
         id="path9"
         inkscape:connector-curvature="0"
         style="fill:#00a9ea;fill-opacity:1" /><ellipse
         cx="198.892"
         cy="228.036"
         rx="9.3000002"
         ry="9.6029997"
         id="ellipse11"
         sodipodi:cx="198.892"
         sodipodi:cy="228.036"
         sodipodi:rx="9.3000002"
         sodipodi:ry="9.6029997"
         d="m 208.192,228.036 c 0,5.30359 -4.16375,9.603 -9.3,9.603 -5.13625,0 -9.3,-4.29941 -9.3,-9.603 0,-5.30359 4.16375,-9.603 9.3,-9.603 5.13625,0 9.3,4.29941 9.3,9.603 z"
         style="fill:#00a9ea;fill-opacity:1" /><path
         d="M 302.883,256 H 233.44 c -5.136,0 -9.3,4.197 -9.3,9.5 0,5.303 4.163,9.5 9.3,9.5 h 69.443 c 5.136,0 9.3,-4.197 9.3,-9.5 0,-5.303 -4.164,-9.5 -9.3,-9.5 z"
         id="path13"
         inkscape:connector-curvature="0"
         style="fill:#00a9ea;fill-opacity:1" /><ellipse
         cx="198.892"
         cy="265.80701"
         rx="9.3000002"
         ry="9.6029997"
         id="ellipse15"
         sodipodi:cx="198.892"
         sodipodi:cy="265.80701"
         sodipodi:rx="9.3000002"
         sodipodi:ry="9.6029997"
         d="m 208.192,265.80701 c 0,5.30359 -4.16375,9.603 -9.3,9.603 -5.13625,0 -9.3,-4.29941 -9.3,-9.603 0,-5.30359 4.16375,-9.603 9.3,-9.603 5.13625,0 9.3,4.29941 9.3,9.603 z"
         style="fill:#00a9ea;fill-opacity:1" /><path
         d="M 302.883,294 H 233.44 c -5.136,0 -9.3,4.197 -9.3,9.5 0,5.303 4.163,9.5 9.3,9.5 h 69.443 c 5.136,0 9.3,-4.197 9.3,-9.5 0,-5.303 -4.164,-9.5 -9.3,-9.5 z"
         id="path17"
         inkscape:connector-curvature="0"
         style="fill:#00a9ea;fill-opacity:1" /><ellipse
         cx="198.892"
         cy="303.57901"
         rx="9.3000002"
         ry="9.6029997"
         id="ellipse19"
         sodipodi:cx="198.892"
         sodipodi:cy="303.57901"
         sodipodi:rx="9.3000002"
         sodipodi:ry="9.6029997"
         d="m 208.192,303.57901 c 0,5.30359 -4.16375,9.603 -9.3,9.603 -5.13625,0 -9.3,-4.29941 -9.3,-9.603 0,-5.30359 4.16375,-9.603 9.3,-9.603 5.13625,0 9.3,4.29941 9.3,9.603 z"
         style="fill:#00a9ea;fill-opacity:1" /><path
         d="M 302.883,181 H 194.8 c -5.136,0 -9.3,4.196 -9.3,9.5 0,5.304 4.163,9.5 9.3,9.5 h 108.084 c 5.136,0 9.3,-4.196 9.3,-9.5 -0.001,-5.304 -4.165,-9.5 -9.301,-9.5 z"
         id="path21"
         inkscape:connector-curvature="0"
         style="fill:#00a9ea;fill-opacity:1" /></g></g></svg>