<?xml version="1.0" encoding="UTF-8" standalone="no"?>
<svg
   xmlns:dc="http://purl.org/dc/elements/1.1/"
   xmlns:cc="http://creativecommons.org/ns#"
   xmlns:rdf="http://www.w3.org/1999/02/22-rdf-syntax-ns#"
   xmlns:svg="http://www.w3.org/2000/svg"
   xmlns="http://www.w3.org/2000/svg"
   xmlns:sodipodi="http://sodipodi.sourceforge.net/DTD/sodipodi-0.dtd"
   xmlns:inkscape="http://www.inkscape.org/namespaces/inkscape"
   enable-background="new 0 0 500 500"
   height="500px"
   id="Layer_1"
   version="1.1"
   viewBox="0 0 500 500"
   width="500px"
   xml:space="preserve"
   inkscape:version="0.48.4 r9939"
   sodipodi:docname="form_16.svg"><metadata
     id="metadata27"><rdf:RDF><cc:Work
         rdf:about=""><dc:format>image/svg+xml</dc:format><dc:type
           rdf:resource="http://purl.org/dc/dcmitype/StillImage" /><dc:title /></cc:Work></rdf:RDF></metadata><defs
     id="defs25" /><sodipodi:namedview
     pagecolor="#ffffff"
     bordercolor="#666666"
     borderopacity="1"
     objecttolerance="10"
     gridtolerance="10"
     guidetolerance="10"
     inkscape:pageopacity="0"
     inkscape:pageshadow="2"
     inkscape:window-width="1248"
     inkscape:window-height="804"
     id="namedview23"
     showgrid="false"
     inkscape:zoom="8"
     inkscape:cx="55.230533"
     inkscape:cy="496.22012"
     inkscape:window-x="2379"
     inkscape:window-y="195"
     inkscape:window-maximized="0"
     inkscape:current-layer="Layer_1" /><g
     id="g3"
     transform="matrix(0.0754717,0,0,0.07305936,-10.742924,-10.301365)"
     style="fill:#00a9ea;fill-opacity:1;stroke:none"><g
       id="g5"
       style="fill:#00a9ea;fill-opacity:1;stroke:none"><path
         d="M 324.691,141 H 175.151 C 157.716,141 144,155.135 144,173.138 V 327.554 C 144,345.557 157.716,360 175.151,360 h 149.54 C 342.126,360 356,345.557 356,327.554 V 173.138 C 356,155.135 342.126,141 324.691,141 z M 338,327.554 C 338,334.967 331.87,341 324.691,341 H 175.151 C 167.972,341 162,334.967 162,327.554 V 173.138 C 162,165.725 167.972,160 175.151,160 h 149.54 c 7.179,0 13.309,5.725 13.309,13.138 v 154.416 z"
         id="path7"
         inkscape:connector-curvature="0"
         style="fill:#00a9ea;fill-opacity:1;stroke:none" /><path
         d="M 302.883,219 H 233.44 c -5.136,0 -9.3,3.696 -9.3,9 0,5.304 4.163,9 9.3,9 h 69.443 c 5.136,0 9.3,-3.696 9.3,-9 0,-5.304 -4.164,-9 -9.3,-9 z"
         id="path9"
         inkscape:connector-curvature="0"
         style="fill:#00a9ea;fill-opacity:1;stroke:none" /><ellipse
         cx="198.892"
         cy="228.036"
         rx="9.3000002"
         ry="9.6029997"
         id="ellipse11"
         sodipodi:cx="198.892"
         sodipodi:cy="228.036"
         sodipodi:rx="9.3000002"
         sodipodi:ry="9.6029997"
         d="m 208.192,228.036 c 0,5.30359 -4.16375,9.603 -9.3,9.603 -5.13625,0 -9.3,-4.29941 -9.3,-9.603 0,-5.30359 4.16375,-9.603 9.3,-9.603 5.13625,0 9.3,4.29941 9.3,9.603 z"
         style="fill:#00a9ea;fill-opacity:1;stroke:none" /><path
         d="M 302.883,256 H 233.44 c -5.136,0 -9.3,4.197 -9.3,9.5 0,5.303 4.163,9.5 9.3,9.5 h 69.443 c 5.136,0 9.3,-4.197 9.3,-9.5 0,-5.303 -4.164,-9.5 -9.3,-9.5 z"
         id="path13"
         inkscape:connector-curvature="0"
         style="fill:#00a9ea;fill-opacity:1;stroke:none" /><ellipse
         cx="198.892"
         cy="265.80701"
         rx="9.3000002"
         ry="9.6029997"
         id="ellipse15"
         sodipodi:cx="198.892"
         sodipodi:cy="265.80701"
         sodipodi:rx="9.3000002"
         sodipodi:ry="9.6029997"
         d="m 208.192,265.80701 c 0,5.30359 -4.16375,9.603 -9.3,9.603 -5.13625,0 -9.3,-4.29941 -9.3,-9.603 0,-5.30359 4.16375,-9.603 9.3,-9.603 5.13625,0 9.3,4.29941 9.3,9.603 z"
         style="fill:#00a9ea;fill-opacity:1;stroke:none" /><path
         d="M 302.883,294 H 233.44 c -5.136,0 -9.3,4.197 -9.3,9.5 0,5.303 4.163,9.5 9.3,9.5 h 69.443 c 5.136,0 9.3,-4.197 9.3,-9.5 0,-5.303 -4.164,-9.5 -9.3,-9.5 z"
         id="path17"
         inkscape:connector-curvature="0"
         style="fill:#00a9ea;fill-opacity:1;stroke:none" /><ellipse
         cx="198.892"
         cy="303.57901"
         rx="9.3000002"
         ry="9.6029997"
         id="ellipse19"
         sodipodi:cx="198.892"
         sodipodi:cy="303.57901"
         sodipodi:rx="9.3000002"
         sodipodi:ry="9.6029997"
         d="m 208.192,303.57901 c 0,5.30359 -4.16375,9.603 -9.3,9.603 -5.13625,0 -9.3,-4.29941 -9.3,-9.603 0,-5.30359 4.16375,-9.603 9.3,-9.603 5.13625,0 9.3,4.29941 9.3,9.603 z"
         style="fill:#00a9ea;fill-opacity:1;stroke:none" /><path
         d="M 302.883,181 H 194.8 c -5.136,0 -9.3,4.196 -9.3,9.5 0,5.304 4.163,9.5 9.3,9.5 h 108.084 c 5.136,0 9.3,-4.196 9.3,-9.5 -0.001,-5.304 -4.165,-9.5 -9.301,-9.5 z"
         id="path21"
         inkscape:connector-curvature="0"
         style="fill:#00a9ea;fill-opacity:1;stroke:none" /></g></g><path
     style="fill:#ffffff;fill-opacity:1;stroke:none"
     d="M 2.1180327,14.428901 C 1.5576954,14.107549 1.5636747,14.176583 1.5595082,7.980447 L 1.5555327,2.0685152 1.8623509,1.761697 2.1691691,1.4548788 l 5.9263245,0 c 5.8062274,0 5.9329994,0.00525 6.2556814,0.2590726 l 0.329358,0.2590725 0,5.9182041 c 0,3.255012 -0.03494,6.00926 -0.07765,6.120551 -0.209081,0.544856 -0.479561,0.568302 -6.5098948,0.564299 -4.0708047,-0.0027 -5.7971918,-0.04523 -5.9749575,-0.147177 z m 2.7648498,-2.166643 c 0.4233737,-0.64615 -0.3635791,-1.433103 -1.0097293,-1.009729 -0.3488998,0.228608 -0.4445468,0.900423 -0.1676205,1.17735 0.2769264,0.276926 0.9487418,0.181279 1.1773498,-0.167621 l 0,0 z m 7.7979695,0.129736 c 0.247341,-0.298027 0.186249,-0.834958 -0.123542,-1.085812 -0.251028,-0.203269 -0.562919,-0.226303 -3.0642773,-0.226303 -2.5013583,0 -2.8132496,0.02303 -3.064277,0.226303 -0.3097916,0.250854 -0.370883,0.787785 -0.1235423,1.085812 0.1309041,0.15773 0.6425407,0.187885 3.1878193,0.187885 2.5452783,0 3.0569153,-0.03016 3.1878193,-0.187885 z M 4.8828825,9.5122584 C 5.3062562,8.8661082 4.5193034,8.0791554 3.8731532,8.5025291 3.5242534,8.7311371 3.4286064,9.4029525 3.7055327,9.6798789 3.9824591,9.9568052 4.6542745,9.8611582 4.8828825,9.5122584 l 0,0 z M 12.58152,9.6736289 c 0.340854,-0.2679412 0.375745,-0.6510509 0.09213,-1.011609 l -0.261262,-0.332141 -2.9090544,0 c -2.7339686,0 -2.9224454,0.014797 -3.1315524,0.245858 -0.2875237,0.31771 -0.2852045,0.8762936 0.00452,1.0881437 0.3170123,0.231805 5.9115563,0.2405939 6.2052203,0.00975 l 10e-7,-5e-7 z M 4.8858746,6.7576917 C 5.3393785,6.0655574 4.5698542,5.2960331 3.8777199,5.749537 3.503293,5.9948709 3.4394079,6.5708969 3.7519614,6.8834502 4.0645147,7.1960037 4.6405407,7.1321186 4.8858746,6.7576917 z M 12.609766,6.9138806 C 12.893599,6.7063369 12.904215,6.1249895 12.629193,5.8499681 12.447555,5.6683297 12.055501,5.6423789 9.4930327,5.6423789 c -3.2184318,0 -3.34375,0.028496 -3.34375,0.760341 0,0.6373038 0.1968013,0.677159 3.34375,0.677159 2.2049823,0 2.9435103,-0.039334 3.1167333,-0.1659983 z M 12.680852,4.141994 C 12.928193,3.8439669 12.867101,3.3070363 12.55731,3.0561823 12.300087,2.847896 11.946199,2.8298788 8.1123222,2.8298788 c -2.3726702,0 -4.3020148,0.051897 -4.4826608,0.1205788 C 3.215754,3.107825 3.0881582,3.6077793 3.3571347,4.0182895 l 0.2041613,0.3115894 4.4818127,0 c 3.8354203,0 4.5043023,-0.027098 4.6377433,-0.1878849 z"
     id="path3763"
     inkscape:connector-curvature="0" /></svg>