<?xml version="1.0" encoding="utf-8"?>
<!-- Generator: Adobe Illustrator 15.0.0, SVG Export Plug-In . SVG Version: 6.00 Build 0)  -->
<!DOCTYPE svg PUBLIC "-//W3C//DTD SVG 1.1//EN" "http://www.w3.org/Graphics/SVG/1.1/DTD/svg11.dtd">
<svg version="1.1" id="Capa_1" xmlns="http://www.w3.org/2000/svg" xmlns:xlink="http://www.w3.org/1999/xlink" x="0px" y="0px"
	 width="619.344px" height="800px" viewBox="0 0 619.344 800" enable-background="new 0 0 619.344 800" xml:space="preserve">
<g>
	<path fill="#222221" d="M347.526,755.08h-21.794v-67.127c16.556-5.386,28.526-20.931,28.526-39.284
		c0-22.812-18.498-41.308-41.313-41.308c-22.813,0-41.31,18.495-41.31,41.308c0,18.354,11.97,33.898,28.525,39.284v67.127h-21.793
		c-24.851,0-44.998,20.146-44.998,44.994h159.154C392.523,775.226,372.377,755.08,347.526,755.08z"/>
	<g>
		<path fill="#222221" d="M574.348,755.08h-21.793v-67.127c16.556-5.386,28.524-20.931,28.524-39.284
			c0-22.812-18.495-41.308-41.312-41.308c-22.813,0-41.31,18.495-41.31,41.308c0,18.354,11.97,33.898,28.524,39.284v67.127H505.19
			c-24.852,0-44.997,20.146-44.997,44.994h159.151C619.344,775.226,599.199,755.08,574.348,755.08z"/>
		<path fill="#222221" d="M120.702,755.08H98.909v-67.127c16.555-5.386,28.525-20.931,28.525-39.284
			c0-22.812-18.498-41.308-41.312-41.308s-41.31,18.495-41.31,41.308c0,18.354,11.97,33.898,28.525,39.284v67.127H51.544
			c-24.852,0-44.998,20.146-44.998,44.994h159.152C165.699,775.226,145.554,755.08,120.702,755.08z"/>
	</g>
	<path fill="#222221" d="M562.039,538.463C517.715,303.183,388.33,160.939,156.396,94.047l50.002-62.221L0-0.075l75.575,194.696
		l62.105-77.284c30.067,15.069,49.996,37.895,59.421,68.16c30.606,98.286-51.729,255.533-119.971,335.8
		c-4.223,4.966-3.62,12.414,1.347,16.636c2.221,1.889,4.937,2.812,7.64,2.812c3.343,0,6.663-1.412,8.999-4.16
		c38.493-45.275,76.014-107.496,100.367-166.445c21.809-52.788,43.704-128.889,24.155-191.661c-0.993-3.191-2.085-6.308-3.266-9.359
		c24.542,25.735,43.299,58.03,56.531,97.214c26.061,77.162,28.24,172.041,28.24,262.607c0,6.521,5.285,11.805,11.802,11.805
		c6.521,0,11.805-5.284,11.805-11.805c0-92.53-2.276-189.608-29.482-270.161c-16.375-48.49-40.509-87.345-72.84-117.074
		c177.217,71.769,278.818,201.561,316.413,401.128c1.067,5.669,6.022,9.621,11.586,9.621c0.726,0,1.461-0.069,2.198-0.206
		C559.031,551.041,563.246,544.87,562.039,538.463z"/>
</g>
</svg>
