<?xml version="1.0" encoding="UTF-8" standalone="no"?>
<!-- Generator: Adobe Illustrator 16.0.0, SVG Export Plug-In . SVG Version: 6.00 Build 0)  -->

<svg
   xmlns:dc="http://purl.org/dc/elements/1.1/"
   xmlns:cc="http://creativecommons.org/ns#"
   xmlns:rdf="http://www.w3.org/1999/02/22-rdf-syntax-ns#"
   xmlns:svg="http://www.w3.org/2000/svg"
   xmlns="http://www.w3.org/2000/svg"
   xmlns:sodipodi="http://sodipodi.sourceforge.net/DTD/sodipodi-0.dtd"
   xmlns:inkscape="http://www.inkscape.org/namespaces/inkscape"
   version="1.1"
   id="Capa_1"
   x="0px"
   y="0px"
   width="91.999px"
   height="92px"
   viewBox="0 0 91.999 92"
   style="enable-background:new 0 0 91.999 92;"
   xml:space="preserve"
   inkscape:version="0.48.4 r9939"
   sodipodi:docname="help.svg"><metadata
   id="metadata39"><rdf:RDF><cc:Work
       rdf:about=""><dc:format>image/svg+xml</dc:format><dc:type
         rdf:resource="http://purl.org/dc/dcmitype/StillImage" /></cc:Work></rdf:RDF></metadata><defs
   id="defs37" /><sodipodi:namedview
   pagecolor="#ffffff"
   bordercolor="#666666"
   borderopacity="1"
   objecttolerance="10"
   gridtolerance="10"
   guidetolerance="10"
   inkscape:pageopacity="0"
   inkscape:pageshadow="2"
   inkscape:window-width="1920"
   inkscape:window-height="1178"
   id="namedview35"
   showgrid="false"
   inkscape:zoom="2.5652174"
   inkscape:cx="-20.856432"
   inkscape:cy="46"
   inkscape:window-x="1912"
   inkscape:window-y="-8"
   inkscape:window-maximized="1"
   inkscape:current-layer="Capa_1" />
<path
   d="M 7.8929722,8.829e-4 C 3.4750266,0.0600136 -0.05821713,3.68974 5.659107e-4,8.10781 0.05969679,12.523967 3.6891151,16.058215 8.1068869,15.999433 12.523963,15.939955 16.057903,12.310229 15.99912,7.892506 15.939989,3.476001 12.310397,-0.0580731 7.8929722,8.829e-4 z m -0.023653,12.8688221 -0.044173,-6.66e-4 c -0.6803533,-0.02017 -1.1600089,-0.52139 -1.1407046,-1.191648 0.018953,-0.65878 0.5102647,-1.13704 1.1681826,-1.13704 l 0.03948,6.67e-4 c 0.6993094,0.02069 1.173574,0.516868 1.153922,1.206431 -0.01948,0.660693 -0.503136,1.122256 -1.176706,1.122256 z M 10.731081,7.1899 C 10.57108,7.417203 10.219251,7.699463 9.7759429,8.044853 L 9.2877655,8.381896 C 9.0197635,8.590243 8.8580235,8.786242 8.7973269,8.979111 8.7494999,9.130937 8.7260219,9.17111 8.7218479,9.479979 l -6.667e-4,0.07843 H 6.8571676 l 0.0054,-0.157738 C 6.8853476,8.752325 6.9013476,8.370935 7.1700482,8.055806 7.5916162,7.560851 8.5215362,6.962071 8.5610149,6.93668 8.6942335,6.836332 8.8065822,6.722072 8.8902349,6.599985 9.0858882,6.330247 9.1724975,6.1179 9.1724975,5.909205 c 0,-0.289563 -0.085913,-0.557389 -0.255828,-0.795823 C 8.7533642,4.8833 8.4431009,4.766779 7.9944022,4.766779 c -0.4450473,0 -0.7497446,0.141217 -0.9320073,0.430955 -0.1874793,0.297912 -0.2822627,0.61078 -0.2822627,0.930431 v 0.07948 H 4.8581673 l 0.00348,-0.08296 C 4.9112113,4.947472 5.3313882,4.099823 6.1100028,3.605216 6.5992238,3.29026 7.2079242,3.130609 7.9181902,3.130609 c 0.929746,0 1.7146213,0.225912 2.3325398,0.671476 0.626091,0.451477 0.943658,1.127648 0.943658,2.009731 0,0.49339 -0.155826,0.956866 -0.463307,1.378082 z"
   id="path3"
   inkscape:connector-curvature="0"
   style="fill:#00a9ea;fill-opacity:1" />
<g
   id="g5">
</g>
<g
   id="g7">
</g>
<g
   id="g9">
</g>
<g
   id="g11">
</g>
<g
   id="g13">
</g>
<g
   id="g15">
</g>
<g
   id="g17">
</g>
<g
   id="g19">
</g>
<g
   id="g21">
</g>
<g
   id="g23">
</g>
<g
   id="g25">
</g>
<g
   id="g27">
</g>
<g
   id="g29">
</g>
<g
   id="g31">
</g>
<g
   id="g33">
</g>
</svg>