<?xml version="1.0" encoding="UTF-8" standalone="no"?>
<!-- Generator: Adobe Illustrator 16.0.0, SVG Export Plug-In . SVG Version: 6.00 Build 0)  -->

<svg
   xmlns:dc="http://purl.org/dc/elements/1.1/"
   xmlns:cc="http://creativecommons.org/ns#"
   xmlns:rdf="http://www.w3.org/1999/02/22-rdf-syntax-ns#"
   xmlns:svg="http://www.w3.org/2000/svg"
   xmlns="http://www.w3.org/2000/svg"
   xmlns:sodipodi="http://sodipodi.sourceforge.net/DTD/sodipodi-0.dtd"
   xmlns:inkscape="http://www.inkscape.org/namespaces/inkscape"
   version="1.1"
   id="Layer_1"
   x="0px"
   y="0px"
   width="126px"
   height="126px"
   viewBox="0 0 126 126"
   enable-background="new 0 0 126 126"
   xml:space="preserve"
   inkscape:version="0.48.4 r9939"
   sodipodi:docname="jpg.svg"><metadata
   id="metadata11"><rdf:RDF><cc:Work
       rdf:about=""><dc:format>image/svg+xml</dc:format><dc:type
         rdf:resource="http://purl.org/dc/dcmitype/StillImage" /></cc:Work></rdf:RDF></metadata><defs
   id="defs9" /><sodipodi:namedview
   pagecolor="#ffffff"
   bordercolor="#666666"
   borderopacity="1"
   objecttolerance="10"
   gridtolerance="10"
   guidetolerance="10"
   inkscape:pageopacity="0"
   inkscape:pageshadow="2"
   inkscape:window-width="1920"
   inkscape:window-height="1178"
   id="namedview7"
   showgrid="false"
   inkscape:zoom="1"
   inkscape:cx="-108.5"
   inkscape:cy="103"
   inkscape:window-x="1912"
   inkscape:window-y="-8"
   inkscape:window-maximized="1"
   inkscape:current-layer="Layer_1" />
<path
   d="m 10.5926,11.35971 c -0.364522,0 -0.611876,0.0313 -0.741532,0.0628 v 2.07459 c 0.153302,0.0313 0.341673,0.0419 0.600452,0.0419 0.953815,0 1.542842,-0.42776 1.542842,-1.14682 0,-0.64659 -0.506664,-1.03247 -1.401762,-1.03247 z"
   id="path3"
   inkscape:connector-curvature="0"
   style="fill:#00a9ea;fill-opacity:1" />
<path
   d="M 22.19407,9.027706 H 21.543403 V 6.247 c 0,-0.01741 -0.0032,-0.03482 -0.0056,-0.05247 -0.0011,-0.110353 -0.04092,-0.218823 -0.126201,-0.304705 L 16.186631,0.603942 c -0.0016,-0.0014 -0.0032,-0.0019 -0.0043,-0.0033 -0.03109,-0.03082 -0.06749,-0.05647 -0.105744,-0.07859 -0.01142,-0.0068 -0.02285,-0.01247 -0.0348,-0.01835 -0.03321,-0.016 -0.06855,-0.02941 -0.104946,-0.03906 -0.0098,-0.0024 -0.0186,-0.0059 -0.02843,-0.0082 -0.03932,-0.0082 -0.0805,-0.01341 -0.12195,-0.01341 H 2.945343 c -0.58637,0 -1.062746,0.422353 -1.062746,0.941176 V 9.027503 H 1.23193 c -0.838772,0 -1.51893,0.602117 -1.51893,1.345177 v 6.99529 c 0,0.74259 0.680158,1.34518 1.51893,1.34518 h 0.650667 v 4.7887 c 0,0.51883 0.476376,0.94118 1.062746,0.94118 h 17.535314 c 0.585839,0 1.062746,-0.42235 1.062746,-0.94118 v -4.78847 h 0.650667 c 0.838772,0 1.51893,-0.60259 1.51893,-1.34517 v -6.9953 c 0,-0.743054 -0.680158,-1.345172 -1.51893,-1.345172 z M 2.945343,1.384412 h 12.30979 v 4.815294 c 0,0.26 0.238056,0.470588 0.531374,0.470588 h 4.69415 V 9.027941 H 2.945343 V 1.384412 z M 13.77154,12.35029 c 0,0.688 -0.258779,1.272 -0.729576,1.66847 -0.612673,0.51083 -1.519196,0.74 -2.578222,0.74 -0.235664,0 -0.447948,-0.0101 -0.612674,-0.031 v 2.5127 H 8.07336 V 10.307 c 0.55369,-0.0838 1.330558,-0.14612 2.425452,-0.14612 1.106585,0 1.895408,0.18753 2.425719,0.56306 0.505867,0.35435 0.847009,0.93835 0.847009,1.62635 z M 2.445055,17.18818 2.645648,15.90582 c 0.247355,0.0729 0.56485,0.12542 0.917948,0.12542 0.754018,0 1.224549,-0.30283 1.224549,-1.39742 v -4.42094 h 1.789399 v 4.44165 c 0,2.00188 -1.08347,2.70023 -2.825577,2.70023 C 3.340153,17.355 2.798418,17.29286 2.445055,17.18818 z M 20.480657,23.247 H 2.945343 V 18.71335 H 20.480657 V 23.247 z m 1.062215,-6.32988 c -0.553159,0.16682 -1.600762,0.39623 -2.649427,0.39623 -1.44746,0 -2.495859,-0.32329 -3.225435,-0.9487 -0.730106,-0.60471 -1.130762,-1.52212 -1.11854,-2.55459 0.01142,-2.33553 1.930479,-3.67012 4.532613,-3.67012 1.024487,0 1.813577,0.17694 2.20201,0.344 l -0.377009,1.272 c -0.435726,-0.16682 -0.977461,-0.30235 -1.848647,-0.30235 -1.495019,0 -2.624984,0.75082 -2.624984,2.27317 0,1.44918 1.023957,2.30424 2.49586,2.30424 0.41208,0 0.741797,-0.0419 0.882877,-0.10471 v -1.46988 h -1.22455 v -1.2407 h 2.955232 v 3.70141 z"
   id="path5"
   inkscape:connector-curvature="0"
   style="fill:#00a9ea;fill-opacity:1" />
</svg>