<?xml version="1.0" encoding="UTF-8" standalone="no"?>
<!-- Generator: Adobe Illustrator 16.0.0, SVG Export Plug-In . SVG Version: 6.00 Build 0)  -->

<svg
   xmlns:dc="http://purl.org/dc/elements/1.1/"
   xmlns:cc="http://creativecommons.org/ns#"
   xmlns:rdf="http://www.w3.org/1999/02/22-rdf-syntax-ns#"
   xmlns:svg="http://www.w3.org/2000/svg"
   xmlns="http://www.w3.org/2000/svg"
   xmlns:sodipodi="http://sodipodi.sourceforge.net/DTD/sodipodi-0.dtd"
   xmlns:inkscape="http://www.inkscape.org/namespaces/inkscape"
   version="1.1"
   id="Layer_1"
   x="0px"
   y="0px"
   width="126px"
   height="126px"
   viewBox="0 0 126 126"
   enable-background="new 0 0 126 126"
   xml:space="preserve"
   inkscape:version="0.48.4 r9939"
   sodipodi:docname="jpg.svg"><metadata
   id="metadata11"><rdf:RDF><cc:Work
       rdf:about=""><dc:format>image/svg+xml</dc:format><dc:type
         rdf:resource="http://purl.org/dc/dcmitype/StillImage" /><dc:title></dc:title></cc:Work></rdf:RDF></metadata><defs
   id="defs9" /><sodipodi:namedview
   pagecolor="#ffffff"
   bordercolor="#666666"
   borderopacity="1"
   objecttolerance="10"
   gridtolerance="10"
   guidetolerance="10"
   inkscape:pageopacity="0"
   inkscape:pageshadow="2"
   inkscape:window-width="1920"
   inkscape:window-height="1178"
   id="namedview7"
   showgrid="false"
   inkscape:zoom="1"
   inkscape:cx="-108.5"
   inkscape:cy="103"
   inkscape:window-x="1912"
   inkscape:window-y="-8"
   inkscape:window-maximized="1"
   inkscape:current-layer="Layer_1" />
<path
   d="m 6.9660667,7.720816 c -0.2430147,0 -0.4079174,0.02087 -0.4943547,0.04187 v 1.38306 c 0.1022013,0.02087 0.227782,0.02793 0.4003013,0.02793 0.6358767,0 1.0285614,-0.285173 1.0285614,-0.764547 0,-0.43106 -0.337776,-0.688313 -0.934508,-0.688313 z"
   id="path3"
   inkscape:connector-curvature="0"
   style="fill:#00a9ea;fill-opacity:1" />
<path
   d="M 14.70038,6.166146 H 14.266602 V 4.312342 c 0,-0.01161 -0.0021,-0.02321 -0.0037,-0.03498 -7.34e-4,-0.07357 -0.02728,-0.145882 -0.08413,-0.203136 L 10.695421,0.5503033 c -0.0011,-9.333e-4 -0.0021,-0.00127 -0.0029,-0.0022 -0.02073,-0.020547 -0.04499,-0.037647 -0.0705,-0.052393 -0.0076,-0.00453 -0.01523,-0.00831 -0.0232,-0.012233 -0.02214,-0.010667 -0.0457,-0.019607 -0.06996,-0.02604 -0.0065,-0.0016 -0.0124,-0.00393 -0.01895,-0.00547 -0.02621,-0.00547 -0.05367,-0.00894 -0.0813,-0.00894 H 1.8678953 C 1.476982,0.44303 1.159398,0.7245987 1.159398,1.0704807 V 6.166011 H 0.72562 c -0.5591813,0 -1.01262,0.401412 -1.01262,0.896785 v 4.663527 c 0,0.49506 0.4534387,0.896787 1.01262,0.896787 h 0.433778 v 3.192467 c 0,0.345886 0.317584,0.627453 0.7084973,0.627453 H 13.558105 c 0.390559,0 0.708497,-0.281567 0.708497,-0.627453 v -3.192314 h 0.433778 c 0.559181,0 1.01262,-0.401727 1.01262,-0.89678 V 7.062949 c 0,-0.495369 -0.453439,-0.896781 -1.01262,-0.896781 z M 1.8678953,1.0706167 H 10.074422 V 4.280813 c 0,0.173333 0.158704,0.313725 0.354249,0.313725 h 3.129434 V 6.166303 H 1.8678953 V 1.0706167 z M 9.08536,8.381203 c 0,0.458666 -0.172519,0.848 -0.486384,1.112313 -0.408449,0.340553 -1.0127973,0.493333 -1.7188147,0.493333 -0.1571093,0 -0.298632,-0.0067 -0.4084493,-0.02067 v 1.675133 H 5.2865733 V 7.019005 C 5.6557,6.963135 6.173612,6.921595 6.9035413,6.921595 c 0.7377234,0 1.2636057,0.12502 1.6171457,0.375373 0.337245,0.236234 0.564673,0.625567 0.564673,1.084234 z m -7.55099,3.22526 0.1337287,-0.854907 c 0.1649033,0.0486 0.3765666,0.08361 0.6119653,0.08361 0.5026787,0 0.816366,-0.201887 0.816366,-0.931614 V 6.956259 h 1.1929327 v 2.9611 c 0,1.334587 -0.7223134,1.800153 -1.883718,1.800153 C 2.131102,11.717676 1.7699453,11.67625 1.53437,11.606463 z m 12.023735,4.039214 H 1.8678953 V 12.623243 H 13.558105 v 3.022434 z m 0.708143,-4.219921 c -0.368773,0.111214 -1.067175,0.264154 -1.766285,0.264154 -0.964973,0 -1.663906,-0.215527 -2.15029,-0.632467 -0.486737,-0.40314 -0.753841,-1.014747 -0.745693,-1.70306 0.0076,-1.55702 1.286986,-2.446747 3.021742,-2.446747 0.682991,0 1.209051,0.11796 1.468007,0.229333 l -0.25134,0.848 c -0.290484,-0.111213 -0.65164,-0.201566 -1.232431,-0.201566 -0.996679,0 -1.749989,0.500546 -1.749989,1.515446 0,0.96612 0.682638,1.536161 1.663906,1.536161 0.27472,0 0.494532,-0.02793 0.588585,-0.06981 V 9.78528 H 12.296093 V 8.958146 h 1.970155 v 2.467607 z"
   id="path5"
   inkscape:connector-curvature="0"
   style="fill:#00a9ea;fill-opacity:1" />
</svg>