<?xml version="1.0" encoding="UTF-8" standalone="no"?>
<!-- Generator: Adobe Illustrator 16.0.4, SVG Export Plug-In . SVG Version: 6.00 Build 0)  -->

<svg
   xmlns:dc="http://purl.org/dc/elements/1.1/"
   xmlns:cc="http://creativecommons.org/ns#"
   xmlns:rdf="http://www.w3.org/1999/02/22-rdf-syntax-ns#"
   xmlns:svg="http://www.w3.org/2000/svg"
   xmlns="http://www.w3.org/2000/svg"
   xmlns:sodipodi="http://sodipodi.sourceforge.net/DTD/sodipodi-0.dtd"
   xmlns:inkscape="http://www.inkscape.org/namespaces/inkscape"
   version="1.1"
   id="Capa_1"
   x="0px"
   y="0px"
   width="32px"
   height="32px"
   viewBox="0 0 32 32"
   enable-background="new 0 0 32 32"
   xml:space="preserve"
   inkscape:version="0.48.4 r9939"
   sodipodi:docname="optimal_size.svg"><metadata
   id="metadata13"><rdf:RDF><cc:Work
       rdf:about=""><dc:format>image/svg+xml</dc:format><dc:type
         rdf:resource="http://purl.org/dc/dcmitype/StillImage" /></cc:Work></rdf:RDF></metadata><defs
   id="defs11" /><sodipodi:namedview
   pagecolor="#ffffff"
   bordercolor="#666666"
   borderopacity="1"
   objecttolerance="10"
   gridtolerance="10"
   guidetolerance="10"
   inkscape:pageopacity="0"
   inkscape:pageshadow="2"
   inkscape:window-width="811"
   inkscape:window-height="684"
   id="namedview9"
   showgrid="false"
   inkscape:zoom="7.375"
   inkscape:cx="16"
   inkscape:cy="16"
   inkscape:window-x="0"
   inkscape:window-y="0"
   inkscape:window-maximized="0"
   inkscape:current-layer="Capa_1" />
<g
   id="g3"
   transform="scale(0.5,0.5)"
   style="fill:#1bbcf1;fill-opacity:1">
	<path
   d="m 32,16 -6,-6 v 4 H 24 V 8 H 18 V 6 h 4 L 16,0 10,6 h 4 V 8 H 8 v 6 H 6 v -4 l -6,6 6,6 v -4 h 2 v 6 h 6 v 2 h -4 l 6,6 1.721,-1.723 c 1.484,1.078 3.304,1.722 5.279,1.723 4.971,-0.002 8.998,-4.029 9,-9 -0.001,-1.975 -0.645,-3.795 -1.723,-5.277 L 32,16 z M 14.059,22 H 10 V 10 h 12 v 4.059 C 17.828,14.52 14.52,17.829 14.059,22 z M 23,29.883 C 19.199,29.874 16.124,26.799 16.115,23 16.124,19.199 19.199,16.124 23,16.115 26.799,16.124 29.874,19.199 29.883,23 29.874,26.799 26.799,29.874 23,29.883 z"
   id="path5"
   inkscape:connector-curvature="0"
   style="fill:#1bbcf1;fill-opacity:1" />
	<polygon
   points="26,19 22,23 20,21 18,23 22,27 28,21 "
   id="polygon7"
   style="fill:#1bbcf1;fill-opacity:1" />
</g>
</svg>