<?xml version="1.0" encoding="UTF-8" standalone="no"?>
<!-- Generator: Adobe Illustrator 16.0.0, SVG Export Plug-In . SVG Version: 6.00 Build 0)  -->

<svg
   xmlns:dc="http://purl.org/dc/elements/1.1/"
   xmlns:cc="http://creativecommons.org/ns#"
   xmlns:rdf="http://www.w3.org/1999/02/22-rdf-syntax-ns#"
   xmlns:svg="http://www.w3.org/2000/svg"
   xmlns="http://www.w3.org/2000/svg"
   xmlns:sodipodi="http://sodipodi.sourceforge.net/DTD/sodipodi-0.dtd"
   xmlns:inkscape="http://www.inkscape.org/namespaces/inkscape"
   version="1.1"
   id="Layer_1"
   x="0px"
   y="0px"
   width="126px"
   height="126px"
   viewBox="0 0 126 126"
   enable-background="new 0 0 126 126"
   xml:space="preserve"
   inkscape:version="0.48.4 r9939"
   sodipodi:docname="png.svg"><metadata
   id="metadata11"><rdf:RDF><cc:Work
       rdf:about=""><dc:format>image/svg+xml</dc:format><dc:type
         rdf:resource="http://purl.org/dc/dcmitype/StillImage" /></cc:Work></rdf:RDF></metadata><defs
   id="defs9" /><sodipodi:namedview
   pagecolor="#ffffff"
   bordercolor="#666666"
   borderopacity="1"
   objecttolerance="10"
   gridtolerance="10"
   guidetolerance="10"
   inkscape:pageopacity="0"
   inkscape:pageshadow="2"
   inkscape:window-width="1111"
   inkscape:window-height="933"
   id="namedview7"
   showgrid="false"
   inkscape:zoom="1.8730159"
   inkscape:cx="-28.563559"
   inkscape:cy="63"
   inkscape:window-x="0"
   inkscape:window-y="0"
   inkscape:window-maximized="0"
   inkscape:current-layer="Layer_1" />
<path
   d="m 5.7813221,12.49994 c 0,-0.60988 -0.477704,-0.97388 -1.322853,-0.97388 -0.343799,0 -0.576806,0.0294 -0.698756,0.0591 v 1.95764 c 0.144268,0.0294 0.321747,0.0391 0.56671,0.0391 0.899083,2.4e-4 1.454899,-0.40329 1.454899,-1.08188 z"
   id="path3"
   inkscape:connector-curvature="0"
   style="fill:#00a9ea;fill-opacity:1" />
<path
   d="M 22.592375,9.027706 H 21.941708 V 6.247 c 0,-0.01741 -0.0032,-0.03482 -0.0056,-0.05247 -0.0011,-0.110353 -0.04092,-0.218823 -0.126201,-0.304705 L 16.584936,0.603942 c -0.0016,-0.0014 -0.0032,-0.0019 -0.0043,-0.0033 -0.03109,-0.03082 -0.06749,-0.05647 -0.105744,-0.07859 -0.01142,-0.0068 -0.02285,-0.01247 -0.0348,-0.01835 -0.03321,-0.016 -0.06855,-0.02941 -0.104946,-0.03906 -0.0098,-0.0024 -0.0186,-0.0059 -0.02843,-0.0082 -0.03932,-0.0082 -0.0805,-0.01341 -0.12195,-0.01341 H 3.3436481 c -0.58637,0 -1.062746,0.422353 -1.062746,0.941176 v 7.643295 h -0.650667 c -0.83877202,0 -1.51893002,0.602117 -1.51893002,1.345177 v 6.99529 c 0,0.74259 0.680158,1.34518 1.51893002,1.34518 h 0.650667 v 4.7887 c 0,0.51883 0.476376,0.94118 1.062746,0.94118 H 20.878962 c 0.585839,0 1.062746,-0.42235 1.062746,-0.94118 v -4.78847 h 0.650667 c 0.838772,0 1.51893,-0.60259 1.51893,-1.34517 v -6.9953 c 0,-0.743054 -0.680158,-1.345172 -1.51893,-1.345172 z M 3.3436481,1.384412 H 15.653438 v 4.815294 c 0,0.26 0.238056,0.470588 0.531374,0.470588 h 4.69415 V 9.027941 H 3.3436481 V 1.384412 z M 10.09129,15.07735 v 1.99694 H 8.5364921 v -6.63035 h 1.9769739 l 1.555329,2.42965 c 0.443962,0.69859 0.888722,1.52447 1.221627,2.27247 h 0.03321 C 13.21231,14.27029 13.179099,13.37524 13.179099,12.38182 v -1.93788 h 1.555595 v 6.63035 h -1.777177 l -1.599699,-2.55764 c -0.445291,-0.70847 -0.933357,-1.564 -1.300802,-2.34118 l -0.03268,0.01 c 0.04543,0.87576 0.06695,1.81012 0.06695,2.89223 z m -8.0093879,1.99694 v -6.54164 c 0.522074,-0.0786 1.255369,-0.13765 2.288093,-0.13765 1.043883,0 1.788602,0.17694 2.288359,0.53129 0.477173,0.33436 0.799716,0.88518 0.799716,1.53459 0,0.64918 -0.2439,1.20024 -0.688659,1.57388 -0.577603,0.48212 -1.432848,0.69883 -2.432627,0.69883 -0.222379,0 -0.422707,-0.0101 -0.577337,-0.0297 v 2.37082 H 2.0819021 z M 20.878962,23.247 H 3.3436481 V 18.71335 H 20.878962 V 23.247 z m 1.57685,-6.47765 c -0.522074,0.15718 -1.51096,0.37389 -2.499579,0.37389 -1.365895,0 -2.355312,-0.30495 -3.04344,-0.8953 -0.68866,-0.57059 -1.066997,-1.43623 -1.055307,-2.41012 0.01063,-2.20353 1.821813,-3.46258 4.276225,-3.46258 0.966568,0 1.711287,0.16682 2.077404,0.32447 l -0.355223,1.20023 c -0.411549,-0.15765 -0.922464,-0.28541 -1.744498,-0.28541 -1.409999,0 -2.476731,0.70823 -2.476731,2.14447 0,1.36753 0.966568,2.17412 2.355312,2.17412 0.388434,0 0.699553,-0.0393 0.833193,-0.0984 v -1.38729 h -1.155737 v -1.17059 h 2.788381 v 3.49247 z"
   id="path5"
   inkscape:connector-curvature="0"
   style="fill:#00a9ea;fill-opacity:1" />
</svg>