<?xml version="1.0" encoding="UTF-8" standalone="no"?>
<!-- Generator: Adobe Illustrator 16.0.0, SVG Export Plug-In . SVG Version: 6.00 Build 0)  -->

<svg
   xmlns:dc="http://purl.org/dc/elements/1.1/"
   xmlns:cc="http://creativecommons.org/ns#"
   xmlns:rdf="http://www.w3.org/1999/02/22-rdf-syntax-ns#"
   xmlns:svg="http://www.w3.org/2000/svg"
   xmlns="http://www.w3.org/2000/svg"
   xmlns:sodipodi="http://sodipodi.sourceforge.net/DTD/sodipodi-0.dtd"
   xmlns:inkscape="http://www.inkscape.org/namespaces/inkscape"
   version="1.1"
   id="Layer_1"
   x="0px"
   y="0px"
   width="126px"
   height="126px"
   viewBox="0 0 126 126"
   enable-background="new 0 0 126 126"
   xml:space="preserve"
   inkscape:version="0.48.4 r9939"
   sodipodi:docname="png.svg"><metadata
   id="metadata11"><rdf:RDF><cc:Work
       rdf:about=""><dc:format>image/svg+xml</dc:format><dc:type
         rdf:resource="http://purl.org/dc/dcmitype/StillImage" /><dc:title></dc:title></cc:Work></rdf:RDF></metadata><defs
   id="defs9" /><sodipodi:namedview
   pagecolor="#ffffff"
   bordercolor="#666666"
   borderopacity="1"
   objecttolerance="10"
   gridtolerance="10"
   guidetolerance="10"
   inkscape:pageopacity="0"
   inkscape:pageshadow="2"
   inkscape:window-width="1111"
   inkscape:window-height="933"
   id="namedview7"
   showgrid="false"
   inkscape:zoom="1.8730159"
   inkscape:cx="-28.563559"
   inkscape:cy="63.000001"
   inkscape:window-x="0"
   inkscape:window-y="0"
   inkscape:window-maximized="0"
   inkscape:current-layer="Layer_1" />
<path
   d="m 3.8913164,8.480969 c 0,-0.406586 -0.3184693,-0.649253 -0.881902,-0.649253 -0.2291993,0 -0.3845373,0.0196 -0.4658373,0.0394 v 1.305093 c 0.096179,0.0196 0.214498,0.02607 0.3778067,0.02607 0.5993886,1.6e-4 0.9699326,-0.26886 0.9699326,-0.721253 z"
   id="path3"
   inkscape:connector-curvature="0"
   style="fill:#00a9ea;fill-opacity:1" />
<path
   d="M 15.098685,6.166146 H 14.664907 V 4.312342 c 0,-0.01161 -0.0021,-0.02321 -0.0037,-0.03498 -7.67e-4,-0.07357 -0.02731,-0.145882 -0.08417,-0.203136 L 11.093726,0.5503033 c -0.0011,-9.333e-4 -0.0021,-0.00127 -0.0029,-0.0022 -0.02073,-0.020547 -0.04499,-0.037647 -0.0705,-0.052393 -0.0076,-0.00453 -0.01523,-0.00831 -0.0232,-0.012233 -0.02214,-0.010667 -0.0457,-0.019607 -0.06996,-0.02604 -0.0065,-0.0016 -0.0124,-0.00393 -0.01895,-0.00547 -0.02621,-0.00547 -0.05367,-0.00894 -0.0813,-0.00894 H 2.2662004 c -0.3909133,0 -0.7084973,0.2815687 -0.7084973,0.6274507 v 5.09553 h -0.433778 c -0.55918135,0 -1.01262002,0.401412 -1.01262002,0.896785 v 4.663527 c 0,0.49506 0.45343867,0.896787 1.01262002,0.896787 h 0.433778 v 3.192467 c 0,0.345886 0.317584,0.627453 0.7084973,0.627453 H 13.95641 c 0.390559,0 0.708497,-0.281567 0.708497,-0.627453 V 12.62326 h 0.433778 c 0.559181,0 1.01262,-0.401727 1.01262,-0.89678 V 7.062946 c 0,-0.495369 -0.453439,-0.896781 -1.01262,-0.896781 z M 2.2662004,1.0706167 H 10.472727 V 4.280813 c 0,0.173333 0.158704,0.313725 0.354249,0.313725 H 13.95641 V 6.166303 H 2.2662004 V 1.0706167 z m 4.498428,9.1286263 v 1.331293 H 5.7280964 V 7.110303 H 7.046079 l 1.0368861,1.619766 c 0.2959746,0.465727 0.5924813,1.016314 0.814418,1.51498 h 0.02214 C 8.8453081,9.661203 8.8231681,9.064503 8.8231681,8.402223 v -1.29192 h 1.0370634 v 4.420233 H 8.6754464 L 7.6089804,9.825443 C 7.3121197,9.353129 6.9867424,8.782776 6.741779,8.264656 l -0.021787,0.0067 c 0.030287,0.58384 0.044633,1.206746 0.044633,1.928153 z m -5.339592,1.331293 V 7.169443 c 0.3480494,-0.0524 0.8369127,-0.09177 1.5253954,-0.09177 0.695922,0 1.1924013,0.11796 1.5255726,0.354193 0.3181154,0.222907 0.533144,0.59012 0.533144,1.02306 0,0.432787 -0.1626,0.80016 -0.459106,1.049254 -0.3850686,0.321413 -0.955232,0.465886 -1.6217513,0.465886 -0.1482527,0 -0.2818047,-0.0067 -0.3848913,-0.0198 v 1.580547 H 1.4250364 z M 13.95641,15.645677 H 2.2662004 V 12.623243 H 13.95641 v 3.022434 z m 1.051233,-4.318434 c -0.348049,0.104787 -1.007307,0.24926 -1.666386,0.24926 -0.910597,0 -1.570208,-0.2033 -2.02896,-0.596867 -0.459107,-0.380393 -0.711331,-0.957487 -0.703538,-1.606747 0.0071,-1.46902 1.214542,-2.308386 2.850817,-2.308386 0.644378,0 1.140858,0.111213 1.384936,0.216313 L 14.607696,8.080969 C 14.33333,7.975869 13.99272,7.890696 13.444698,7.890696 c -0.94,0 -1.651154,0.472153 -1.651154,1.429647 0,0.911686 0.644378,1.449413 1.570208,1.449413 0.258956,0 0.466368,-0.0262 0.555462,-0.0656 V 9.779296 H 13.148722 V 8.998903 h 1.858921 v 2.328313 z"
   id="path5"
   inkscape:connector-curvature="0"
   style="fill:#00a9ea;fill-opacity:1" />
</svg>