<?xml version="1.0" encoding="UTF-8" standalone="no"?>
<!-- Generator: Adobe Illustrator 17.0.0, SVG Export Plug-In . SVG Version: 6.00 Build 0)  -->

<svg
   xmlns:dc="http://purl.org/dc/elements/1.1/"
   xmlns:cc="http://creativecommons.org/ns#"
   xmlns:rdf="http://www.w3.org/1999/02/22-rdf-syntax-ns#"
   xmlns:svg="http://www.w3.org/2000/svg"
   xmlns="http://www.w3.org/2000/svg"
   xmlns:sodipodi="http://sodipodi.sourceforge.net/DTD/sodipodi-0.dtd"
   xmlns:inkscape="http://www.inkscape.org/namespaces/inkscape"
   version="1.1"
   id="Capa_1"
   x="0px"
   y="0px"
   width="17.811px"
   height="17.173px"
   viewBox="0 0 17.811 17.173"
   enable-background="new 0 0 17.811 17.173"
   xml:space="preserve"
   inkscape:version="0.48.4 r9939"
   sodipodi:docname="refresh_16.svg"><metadata
   id="metadata9"><rdf:RDF><cc:Work
       rdf:about=""><dc:format>image/svg+xml</dc:format><dc:type
         rdf:resource="http://purl.org/dc/dcmitype/StillImage" /></cc:Work></rdf:RDF></metadata><defs
   id="defs7" /><sodipodi:namedview
   pagecolor="#ffffff"
   bordercolor="#666666"
   borderopacity="1"
   objecttolerance="10"
   gridtolerance="10"
   guidetolerance="10"
   inkscape:pageopacity="0"
   inkscape:pageshadow="2"
   inkscape:window-width="976"
   inkscape:window-height="893"
   id="namedview5"
   showgrid="false"
   inkscape:zoom="13.742502"
   inkscape:cx="-3.5740316"
   inkscape:cy="8.5865002"
   inkscape:window-x="0"
   inkscape:window-y="0"
   inkscape:window-maximized="0"
   inkscape:current-layer="Capa_1" />
<path
   d="M 15.690088,9.0979804 9.0029778,7.1014748 C 8.7173113,7.0166955 8.5753764,7.1815959 8.6867684,7.4666778 l 0.7635739,1.9555126 c 0.1122902,0.285082 -0.022458,0.6139506 -0.2991413,0.7285426 0,0 -1.7625083,0.729474 -3.0965168,0.729474 -1.0097142,0 -2.2952133,-0.393152 -2.2952133,-0.393152 -0.2847681,-0.08757 -0.3449557,0.01863 -0.131155,0.233842 0,0 1.6663877,3.161987 5.5130035,2.910444 0.6458937,-0.04285 1.3304156,-0.131361 1.3304156,-0.131361 0.291954,-0.05683 0.622537,0.131361 0.733929,0.418306 l 0.714166,1.82881 c 0.11229,0.286946 0.328786,0.303715 0.484196,0.04006 L 15.92994,9.7333574 c 0.153614,-0.264586 0.04581,-0.550599 -0.239852,-0.635378 z M 7.314132,8.4803024 6.5505581,6.5257211 C 6.4391661,6.2406392 6.5730161,5.9136334 6.8496994,5.79811 c 0,0 1.7634065,-0.7313376 3.0965167,-0.7313376 1.0088159,0 2.2952129,0.3950155 2.2952129,0.3950155 0.28387,0.085711 0.344956,-0.018633 0.131155,-0.235705 0,0 -1.666387,-3.1619871 -5.513003,-2.908581 C 6.2127889,2.3584941 5.5300641,2.4488632 5.5300641,2.4488632 5.237211,2.5056933 4.9066284,2.3175019 4.7943381,2.0314884 L 4.080172,0.20267858 C 3.9678817,-0.08519832 3.7504877,-0.10289942 3.5968746,0.15982308 L 0.07006155,6.2145533 C -0.08355155,6.4791391 0.0233488,6.7660843 0.31081191,6.8508636 L 6.9970243,8.8473684 c 0.2856664,0.08385 0.429398,-0.080121 0.3171077,-0.367066 z"
   id="path3"
   inkscape:connector-curvature="0"
   style="fill:#00a9ea;fill-opacity:1" />
</svg>