<?xml version="1.0" encoding="UTF-8" standalone="no"?>
<!-- Generator: Adobe Illustrator 17.0.0, SVG Export Plug-In . SVG Version: 6.00 Build 0)  -->

<svg
   xmlns:dc="http://purl.org/dc/elements/1.1/"
   xmlns:cc="http://creativecommons.org/ns#"
   xmlns:rdf="http://www.w3.org/1999/02/22-rdf-syntax-ns#"
   xmlns:svg="http://www.w3.org/2000/svg"
   xmlns="http://www.w3.org/2000/svg"
   xmlns:sodipodi="http://sodipodi.sourceforge.net/DTD/sodipodi-0.dtd"
   xmlns:inkscape="http://www.inkscape.org/namespaces/inkscape"
   version="1.1"
   id="Capa_1"
   x="0px"
   y="0px"
   width="17.811px"
   height="17.173px"
   viewBox="0 0 17.811 17.173"
   enable-background="new 0 0 17.811 17.173"
   xml:space="preserve"
   inkscape:version="0.48.4 r9939"
   sodipodi:docname="refresh_16.svg"><metadata
   id="metadata9"><rdf:RDF><cc:Work
       rdf:about=""><dc:format>image/svg+xml</dc:format><dc:type
         rdf:resource="http://purl.org/dc/dcmitype/StillImage" /><dc:title></dc:title></cc:Work></rdf:RDF></metadata><defs
   id="defs7" /><sodipodi:namedview
   pagecolor="#ffffff"
   bordercolor="#666666"
   borderopacity="1"
   objecttolerance="10"
   gridtolerance="10"
   guidetolerance="10"
   inkscape:pageopacity="0"
   inkscape:pageshadow="2"
   inkscape:window-width="976"
   inkscape:window-height="893"
   id="namedview5"
   showgrid="false"
   inkscape:zoom="13.742502"
   inkscape:cx="-3.5740315"
   inkscape:cy="8.5864999"
   inkscape:window-x="0"
   inkscape:window-y="0"
   inkscape:window-maximized="0"
   inkscape:current-layer="Capa_1" />
<path
   d="M 23.535171,13.659895 13.504505,10.665136 c -0.4285,-0.127168 -0.641402,0.120182 -0.474314,0.547805 l 1.145361,2.933269 c 0.168435,0.427623 -0.03369,0.920926 -0.448712,1.092814 0,0 -2.643763,1.094211 -4.6447759,1.094211 -1.5145714,0 -3.4428201,-0.589728 -3.4428201,-0.589728 -0.4271522,-0.131355 -0.5174336,0.02795 -0.1967325,0.350763 0,0 2.4995817,4.74298 8.2695055,4.365666 0.968841,-0.06428 1.995624,-0.197042 1.995624,-0.197042 0.437931,-0.08524 0.933805,0.197042 1.100893,0.627459 l 1.071249,2.743215 c 0.168435,0.430419 0.493179,0.455573 0.726294,0.06009 l 5.288872,-9.080698 c 0.230421,-0.396879 0.06872,-0.825898 -0.359778,-0.953067 z M 10.971236,12.733378 9.825875,9.801506 C 9.658787,9.373883 9.859562,8.883374 10.274587,8.710089 c 0,0 2.64511,-1.0970065 4.644775,-1.0970065 1.513224,0 3.44282,0.5925235 3.44282,0.5925235 0.425805,0.128566 0.517434,-0.02795 0.196732,-0.3535577 0,0 -2.49958,-4.7429809 -8.269505,-4.3628717 C 9.3192212,3.5506646 8.2951339,3.6862186 8.2951339,3.6862186 7.8558543,3.7714636 7.3599803,3.4891766 7.1915449,3.0601563 L 6.1202957,0.31694154 C 5.9518602,-0.11487376 5.6257692,-0.14142546 5.3953495,0.25265834 L 0.10512962,9.334754 C -0.12529005,9.731633 0.03506049,10.16205 0.46625518,10.289219 L 10.495574,13.283977 c 0.4285,0.125775 0.644097,-0.120182 0.475662,-0.550599 z"
   id="path3"
   inkscape:connector-curvature="0"
   style="fill:#00a9ea;fill-opacity:1" />
</svg>