<?xml version="1.0" encoding="UTF-8" standalone="no"?>
<!-- Generator: Adobe Illustrator 16.0.4, SVG Export Plug-In . SVG Version: 6.00 Build 0)  -->

<svg
   xmlns:dc="http://purl.org/dc/elements/1.1/"
   xmlns:cc="http://creativecommons.org/ns#"
   xmlns:rdf="http://www.w3.org/1999/02/22-rdf-syntax-ns#"
   xmlns:svg="http://www.w3.org/2000/svg"
   xmlns="http://www.w3.org/2000/svg"
   xmlns:sodipodi="http://sodipodi.sourceforge.net/DTD/sodipodi-0.dtd"
   xmlns:inkscape="http://www.inkscape.org/namespaces/inkscape"
   version="1.1"
   id="Layer_1"
   x="0px"
   y="0px"
   width="24px"
   height="24px"
   viewBox="0 0 24 24"
   enable-background="new 0 0 24 24"
   xml:space="preserve"
   inkscape:version="0.48.4 r9939"
   sodipodi:docname="root_16.svg"><metadata
   id="metadata9"><rdf:RDF><cc:Work
       rdf:about=""><dc:format>image/svg+xml</dc:format><dc:type
         rdf:resource="http://purl.org/dc/dcmitype/StillImage" /></cc:Work></rdf:RDF></metadata><defs
   id="defs7" /><sodipodi:namedview
   pagecolor="#ffffff"
   bordercolor="#666666"
   borderopacity="1"
   objecttolerance="10"
   gridtolerance="10"
   guidetolerance="10"
   inkscape:pageopacity="0"
   inkscape:pageshadow="2"
   inkscape:window-width="1052"
   inkscape:window-height="871"
   id="namedview5"
   showgrid="false"
   inkscape:zoom="9.8333333"
   inkscape:cx="-5.440678"
   inkscape:cy="12"
   inkscape:window-x="0"
   inkscape:window-y="0"
   inkscape:window-maximized="0"
   inkscape:current-layer="Layer_1" />
<path
   d="m 10.666667,7.8644068 c 0,1.4726672 -1.1940003,2.6666672 -2.666667,2.6666672 -1.4726667,0 -2.6666667,-1.194 -2.6666667,-2.6666672 0,-1.472667 1.194,-2.666667 2.6666667,-2.666667 1.4726667,0 2.666667,1.194 2.666667,2.666667 z M 16,8.531074 h -2.039333 c -0.303334,2.795333 -2.498667,4.990666 -5.2940003,5.294 v 2.039333 H 7.3333333 v -2.039333 c -2.796,-0.303334 -4.9906666,-2.498667 -5.2946666,-5.294 H 0 V 7.1977398 h 2.0386667 c 0.304,-2.796 2.4986666,-4.990666 5.2946666,-5.294666 v -2.038667 h 1.3333334 v 2.038667 c 2.7953333,0.304 4.9906663,2.499333 5.2940003,5.294666 H 16 V 8.531074 z M 13,7.8644068 c 0,-2.733333 -2.266667,-5 -5,-5 -2.7333333,0 -5,2.266667 -5,5 0,2.7333332 2.2666667,5.0000002 5,5.0000002 2.733333,0 5,-2.266667 5,-5.0000002 z"
   id="path3"
   inkscape:connector-curvature="0"
   style="fill:#1bbcf1;fill-opacity:1" />
</svg>