<?xml version="1.0" encoding="UTF-8" standalone="no"?>
<!-- Generator: Adobe Illustrator 16.0.0, SVG Export Plug-In . SVG Version: 6.00 Build 0)  -->

<svg
   xmlns:dc="http://purl.org/dc/elements/1.1/"
   xmlns:cc="http://creativecommons.org/ns#"
   xmlns:rdf="http://www.w3.org/1999/02/22-rdf-syntax-ns#"
   xmlns:svg="http://www.w3.org/2000/svg"
   xmlns="http://www.w3.org/2000/svg"
   xmlns:sodipodi="http://sodipodi.sourceforge.net/DTD/sodipodi-0.dtd"
   xmlns:inkscape="http://www.inkscape.org/namespaces/inkscape"
   version="1.1"
   id="Layer_1"
   x="0px"
   y="0px"
   width="512px"
   height="512px"
   viewBox="0 0 512 512"
   enable-background="new 0 0 512 512"
   xml:space="preserve"
   inkscape:version="0.48.4 r9939"
   sodipodi:docname="save_to_cloud.svg"><metadata
   id="metadata9"><rdf:RDF><cc:Work
       rdf:about=""><dc:format>image/svg+xml</dc:format><dc:type
         rdf:resource="http://purl.org/dc/dcmitype/StillImage" /></cc:Work></rdf:RDF></metadata><defs
   id="defs7" /><sodipodi:namedview
   pagecolor="#ffffff"
   bordercolor="#666666"
   borderopacity="1"
   objecttolerance="10"
   gridtolerance="10"
   guidetolerance="10"
   inkscape:pageopacity="0"
   inkscape:pageshadow="2"
   inkscape:window-width="1386"
   inkscape:window-height="999"
   id="namedview5"
   showgrid="false"
   inkscape:zoom="1"
   inkscape:cx="84.5"
   inkscape:cy="256"
   inkscape:window-x="2082"
   inkscape:window-y="112"
   inkscape:window-maximized="0"
   inkscape:current-layer="Layer_1" />
<path
   d="M 20.920922,9.05081 C 20.954578,8.70312 21,8.35937 21,8 21,3.582 18.314953,0 15,0 13.040016,0 11.315906,1.2715 10.221656,3.21094 9.827625,3.084 9.421875,3 9,3 6.0996094,3 3.75,6.13281 3.75,10 c 0,0.10937 0.020531,0.20706 0.023437,0.31644 C 1.5981563,11.16994 0,13.82225 0,17 c 0,3.86719 2.3496094,7 5.25,7 H 18 c 3.314953,0 6,-3.58006 6,-8 0,-2.99606 -1.2495,-5.57813 -3.079078,-6.94919 z M 13.5,14 v 6 h -3 v -6 h -3 l 4.5,-6 4.5,6 h -3 z"
   id="path3"
   inkscape:connector-curvature="0"
   style="fill:#00a9ea;fill-opacity:1" />
</svg>