<?xml version="1.0" encoding="UTF-8" standalone="no"?>
<!-- Generator: Adobe Illustrator 16.0.0, SVG Export Plug-In . SVG Version: 6.00 Build 0)  -->

<svg
   xmlns:dc="http://purl.org/dc/elements/1.1/"
   xmlns:cc="http://creativecommons.org/ns#"
   xmlns:rdf="http://www.w3.org/1999/02/22-rdf-syntax-ns#"
   xmlns:svg="http://www.w3.org/2000/svg"
   xmlns="http://www.w3.org/2000/svg"
   xmlns:sodipodi="http://sodipodi.sourceforge.net/DTD/sodipodi-0.dtd"
   xmlns:inkscape="http://www.inkscape.org/namespaces/inkscape"
   version="1.1"
   id="Layer_1"
   x="0px"
   y="0px"
   width="512px"
   height="512px"
   viewBox="0 0 512 512"
   enable-background="new 0 0 512 512"
   xml:space="preserve"
   inkscape:version="0.48.4 r9939"
   sodipodi:docname="save_to_cloud.svg"><metadata
   id="metadata9"><rdf:RDF><cc:Work
       rdf:about=""><dc:format>image/svg+xml</dc:format><dc:type
         rdf:resource="http://purl.org/dc/dcmitype/StillImage" /><dc:title></dc:title></cc:Work></rdf:RDF></metadata><defs
   id="defs7" /><sodipodi:namedview
   pagecolor="#ffffff"
   bordercolor="#666666"
   borderopacity="1"
   objecttolerance="10"
   gridtolerance="10"
   guidetolerance="10"
   inkscape:pageopacity="0"
   inkscape:pageshadow="2"
   inkscape:window-width="1386"
   inkscape:window-height="999"
   id="namedview5"
   showgrid="false"
   inkscape:zoom="1"
   inkscape:cx="84.5"
   inkscape:cy="256"
   inkscape:window-x="2082"
   inkscape:window-y="112"
   inkscape:window-maximized="0"
   inkscape:current-layer="Layer_1" />
<path
   d="M 13.947281,8.033873 C 13.969719,7.80208 14,7.572913 14,7.333333 14,4.388 12.209969,2 10,2 8.693344,2 7.5439373,2.8476667 6.8144373,4.140627 6.55175,4.056 6.28125,4 6,4 4.0664063,4 2.5,6.08854 2.5,8.666667 c 0,0.07291 0.013687,0.13804 0.015625,0.21096 C 1.0654375,9.446627 0,11.214833 0,13.333333 0,15.91146 1.5664063,18 3.5,18 H 12 c 2.209969,0 4,-2.386707 4,-5.333333 0,-1.997374 -0.833,-3.718754 -2.052719,-4.632794 z M 9,11.333333 v 4 H 7 v -4 H 5 l 3,-4 3,4 H 9 z"
   id="path3"
   inkscape:connector-curvature="0"
   style="fill:#00a9ea;fill-opacity:1" />
</svg>