<?xml version="1.0" encoding="UTF-8" standalone="no"?>
<!-- Generator: Adobe Illustrator 16.0.4, SVG Export Plug-In . SVG Version: 6.00 Build 0)  -->

<svg
   xmlns:dc="http://purl.org/dc/elements/1.1/"
   xmlns:cc="http://creativecommons.org/ns#"
   xmlns:rdf="http://www.w3.org/1999/02/22-rdf-syntax-ns#"
   xmlns:svg="http://www.w3.org/2000/svg"
   xmlns="http://www.w3.org/2000/svg"
   xmlns:sodipodi="http://sodipodi.sourceforge.net/DTD/sodipodi-0.dtd"
   xmlns:inkscape="http://www.inkscape.org/namespaces/inkscape"
   version="1.1"
   id="Capa_1"
   x="0px"
   y="0px"
   width="40px"
   height="40px"
   viewBox="0 0 40 40"
   style="enable-background:new 0 0 40 40;"
   xml:space="preserve"
   inkscape:version="0.48.4 r9939"
   sodipodi:docname="select_all.svg"><metadata
   id="metadata42"><rdf:RDF><cc:Work
       rdf:about=""><dc:format>image/svg+xml</dc:format><dc:type
         rdf:resource="http://purl.org/dc/dcmitype/StillImage" /></cc:Work></rdf:RDF></metadata><defs
   id="defs40" /><sodipodi:namedview
   pagecolor="#ffffff"
   bordercolor="#666666"
   borderopacity="1"
   objecttolerance="10"
   gridtolerance="10"
   guidetolerance="10"
   inkscape:pageopacity="0"
   inkscape:pageshadow="2"
   inkscape:window-width="1920"
   inkscape:window-height="1138"
   id="namedview38"
   showgrid="false"
   inkscape:zoom="2"
   inkscape:cx="-9.0677966"
   inkscape:cy="20"
   inkscape:window-x="-8"
   inkscape:window-y="-8"
   inkscape:window-maximized="1"
   inkscape:current-layer="Capa_1" />
<g
   id="_x34_28._Network"
   transform="scale(0.4,0.4)"
   style="fill:#1bbcf1;fill-opacity:1">
	<g
   id="g4"
   style="fill:#1bbcf1;fill-opacity:1">
		<path
   d="m 34,13.999 c -2.611,0 -4.827,1.672 -5.651,4.001 H 14.828 l 6.59,-6.59 C 22.201,11.784 23.074,12 24,12 c 3.313,0 6,-2.687 6,-6 0,-3.314 -2.687,-6 -6,-6 -3.313,0 -6,2.686 -6,6 0,0.926 0.216,1.799 0.59,2.581 l -7.806,7.807 C 9.69,14.938 7.956,14 6,14 c -3.313,0 -6,2.686 -6,6 0,3.313 2.687,6 6,6 1.957,0 3.69,-0.938 4.784,-2.388 l 7.806,7.806 C 18.216,32.201 18,33.074 18,34 c 0,3.312 2.687,6 6,6 3.313,0 6,-2.688 6,-6 0,-3.314 -2.687,-6 -6,-6 -0.926,0 -1.799,0.216 -2.582,0.59 L 14.828,22 h 13.521 c 0.825,2.329 3.04,4 5.651,4 3.313,0 6,-2.687 6,-6 0,-3.314 -2.687,-6.001 -6,-6.001 z M 24,4 c 1.104,0 2,0.895 2,2 0,1.104 -0.896,2 -2,2 C 22.896,8 22,7.104 22,6 22,4.895 22.896,4 24,4 z M 6,22 c -1.104,0 -2,-0.896 -2,-2 0,-1.105 0.896,-2 2,-2 1.104,0 2,0.895 2,2 0,1.104 -0.896,2 -2,2 z m 18,10 c 1.104,0 2,0.895 2,2 0,1.104 -0.896,2 -2,2 -1.104,0 -2,-0.896 -2,-2 0,-1.105 0.896,-2 2,-2 z M 34,22 c -1.104,0 -2,-0.896 -2,-2 0,-1.105 0.896,-2 2,-2 1.104,0 2,0.895 2,2 0,1.104 -0.896,2 -2,2 z"
   id="path6"
   inkscape:connector-curvature="0"
   style="fill:#1bbcf1;fill-opacity:1" />
	</g>
</g>
<g
   id="g8">
</g>
<g
   id="g10">
</g>
<g
   id="g12">
</g>
<g
   id="g14">
</g>
<g
   id="g16">
</g>
<g
   id="g18">
</g>
<g
   id="g20">
</g>
<g
   id="g22">
</g>
<g
   id="g24">
</g>
<g
   id="g26">
</g>
<g
   id="g28">
</g>
<g
   id="g30">
</g>
<g
   id="g32">
</g>
<g
   id="g34">
</g>
<g
   id="g36">
</g>
</svg>