<?xml version="1.0" encoding="UTF-8" standalone="no"?>
<!-- Generator: Adobe Illustrator 16.0.4, SVG Export Plug-In . SVG Version: 6.00 Build 0)  -->

<svg
   xmlns:dc="http://purl.org/dc/elements/1.1/"
   xmlns:cc="http://creativecommons.org/ns#"
   xmlns:rdf="http://www.w3.org/1999/02/22-rdf-syntax-ns#"
   xmlns:svg="http://www.w3.org/2000/svg"
   xmlns="http://www.w3.org/2000/svg"
   xmlns:sodipodi="http://sodipodi.sourceforge.net/DTD/sodipodi-0.dtd"
   xmlns:inkscape="http://www.inkscape.org/namespaces/inkscape"
   version="1.1"
   id="Capa_1"
   x="0px"
   y="0px"
   width="23.303px"
   height="23.305px"
   viewBox="0 0 23.303 23.305"
   enable-background="new 0 0 23.303 23.305"
   xml:space="preserve"
   inkscape:version="0.48.4 r9939"
   sodipodi:docname="viral.svg"><metadata
   id="metadata27"><rdf:RDF><cc:Work
       rdf:about=""><dc:format>image/svg+xml</dc:format><dc:type
         rdf:resource="http://purl.org/dc/dcmitype/StillImage" /><dc:title></dc:title></cc:Work></rdf:RDF></metadata><defs
   id="defs25" /><sodipodi:namedview
   pagecolor="#ffffff"
   bordercolor="#666666"
   borderopacity="1"
   objecttolerance="10"
   gridtolerance="10"
   guidetolerance="10"
   inkscape:pageopacity="0"
   inkscape:pageshadow="2"
   inkscape:window-width="1367"
   inkscape:window-height="870"
   id="namedview23"
   showgrid="false"
   inkscape:zoom="1"
   inkscape:cx="-159.8485"
   inkscape:cy="11.6525"
   inkscape:window-x="0"
   inkscape:window-y="0"
   inkscape:window-maximized="0"
   inkscape:current-layer="Capa_1" />
<g
   id="g3"
   transform="matrix(0.68657745,0,0,0.68657745,0.09875,0.09368539)"
   style="fill:#1bbcf1;fill-opacity:1">
	<circle
   cx="11.651"
   cy="1.8049999"
   r="1.8049999"
   id="circle5"
   sodipodi:cx="11.651"
   sodipodi:cy="1.8049999"
   sodipodi:rx="1.8049999"
   sodipodi:ry="1.8049999"
   d="m 13.456,1.8049999 c 0,0.996874 -0.808126,1.805 -1.805,1.805 -0.996874,0 -1.8049999,-0.808126 -1.8049999,-1.805 C 9.8460001,0.808126 10.654126,0 11.651,0 c 0.996874,0 1.805,0.808126 1.805,1.8049999 z"
   style="fill:#1bbcf1;fill-opacity:1" />
	<circle
   cx="11.651"
   cy="21.497999"
   r="1.8049999"
   id="circle7"
   sodipodi:cx="11.651"
   sodipodi:cy="21.497999"
   sodipodi:rx="1.8049999"
   sodipodi:ry="1.8049999"
   d="m 13.456,21.497999 c 0,0.996874 -0.808126,1.805 -1.805,1.805 -0.996874,0 -1.8049999,-0.808126 -1.8049999,-1.805 0,-0.996874 0.8081259,-1.805 1.8049999,-1.805 0.996874,0 1.805,0.808126 1.805,1.805 z"
   style="fill:#1bbcf1;fill-opacity:1" />
	<circle
   cx="21.497999"
   cy="11.652"
   r="1.806"
   id="circle9"
   sodipodi:cx="21.497999"
   sodipodi:cy="11.652"
   sodipodi:rx="1.806"
   sodipodi:ry="1.806"
   d="m 23.303999,11.652 c 0,0.997427 -0.808574,1.806 -1.806,1.806 -0.997426,0 -1.806,-0.808573 -1.806,-1.806 0,-0.997426 0.808574,-1.8059996 1.806,-1.8059996 0.997426,0 1.806,0.8085736 1.806,1.8059996 z"
   style="fill:#1bbcf1;fill-opacity:1" />
	<circle
   cx="1.806"
   cy="11.652"
   r="1.806"
   id="circle11"
   sodipodi:cx="1.806"
   sodipodi:cy="11.652"
   sodipodi:rx="1.806"
   sodipodi:ry="1.806"
   d="m 3.612,11.652 c 0,0.997427 -0.8085738,1.806 -1.806,1.806 C 0.80857374,13.458 0,12.649427 0,11.652 0,10.654574 0.80857374,9.8460004 1.806,9.8460004 c 0.9974262,0 1.806,0.8085736 1.806,1.8059996 z"
   style="fill:#1bbcf1;fill-opacity:1" />
	<path
   d="M 16.969,16.969 16.535,15.48 16.176,15.835 14.431,14.09 c 0.512,-0.599 0.833,-1.356 0.874,-2.195 h 2.506 v 0.504 l 1.362,-0.747 -1.362,-0.747 v 0.504 H 15.292 C 15.224,10.589 14.893,9.848 14.373,9.27 l 1.803,-1.803 0.359,0.358 0.434,-1.492 -1.491,0.435 0.356,0.357 -1.809,1.809 C 13.442,8.435 12.707,8.121 11.893,8.066 V 5.493 h 0.505 L 11.65,4.13 10.904,5.493 H 11.41 V 8.065 C 10.596,8.119 9.859,8.434 9.276,8.933 L 7.467,7.125 7.825,6.768 6.334,6.333 6.769,7.825 7.127,7.467 8.928,9.268 c -0.52,0.578 -0.852,1.319 -0.92,2.14 H 5.493 v -0.504 l -1.362,0.747 1.362,0.747 v -0.504 h 2.501 c 0.042,0.839 0.363,1.597 0.875,2.195 L 7.124,15.834 6.766,15.479 6.334,16.97 7.825,16.536 7.467,16.178 9.206,14.438 c 0.594,0.533 1.357,0.869 2.203,0.925 v 2.448 h -0.506 l 0.746,1.361 0.749,-1.361 h -0.505 v -2.448 c 0.846,-0.057 1.608,-0.394 2.201,-0.926 l 1.741,1.741 -0.358,0.357 1.492,0.434 z"
   id="path13"
   inkscape:connector-curvature="0"
   style="fill:#1bbcf1;fill-opacity:1" />
	<circle
   cx="18.613001"
   cy="4.6890001"
   r="1.8049999"
   id="circle15"
   sodipodi:cx="18.613001"
   sodipodi:cy="4.6890001"
   sodipodi:rx="1.8049999"
   sodipodi:ry="1.8049999"
   d="m 20.418001,4.6890001 c 0,0.996874 -0.808126,1.805 -1.805,1.805 -0.996874,0 -1.805,-0.808126 -1.805,-1.805 0,-0.9968739 0.808126,-1.8049999 1.805,-1.8049999 0.996874,0 1.805,0.808126 1.805,1.8049999 z"
   style="fill:#1bbcf1;fill-opacity:1" />
	<circle
   cx="4.6890001"
   cy="18.614"
   r="1.8049999"
   id="circle17"
   sodipodi:cx="4.6890001"
   sodipodi:cy="18.614"
   sodipodi:rx="1.8049999"
   sodipodi:ry="1.8049999"
   d="m 6.4940001,18.614 c 0,0.996874 -0.808126,1.805 -1.805,1.805 -0.9968739,0 -1.8049999,-0.808126 -1.8049999,-1.805 0,-0.996874 0.808126,-1.805 1.8049999,-1.805 0.996874,0 1.805,0.808126 1.805,1.805 z"
   style="fill:#1bbcf1;fill-opacity:1" />
	<circle
   cx="18.613001"
   cy="18.614"
   r="1.8049999"
   id="circle19"
   sodipodi:cx="18.613001"
   sodipodi:cy="18.614"
   sodipodi:rx="1.8049999"
   sodipodi:ry="1.8049999"
   d="m 20.418001,18.614 c 0,0.996874 -0.808126,1.805 -1.805,1.805 -0.996874,0 -1.805,-0.808126 -1.805,-1.805 0,-0.996874 0.808126,-1.805 1.805,-1.805 0.996874,0 1.805,0.808126 1.805,1.805 z"
   style="fill:#1bbcf1;fill-opacity:1" />
	<circle
   cx="4.6880002"
   cy="4.6890001"
   r="1.806"
   id="circle21"
   sodipodi:cx="4.6880002"
   sodipodi:cy="4.6890001"
   sodipodi:rx="1.806"
   sodipodi:ry="1.806"
   d="m 6.4940002,4.6890001 c 0,0.9974263 -0.8085737,1.806 -1.806,1.806 -0.9974263,0 -1.806,-0.8085737 -1.806,-1.806 0,-0.9974262 0.8085737,-1.806 1.806,-1.806 0.9974263,0 1.806,0.8085738 1.806,1.806 z"
   style="fill:#1bbcf1;fill-opacity:1" />
</g>
</svg>