<?xml version="1.0" encoding="UTF-8" standalone="no"?>
<!-- Generator: Adobe Illustrator 15.0.0, SVG Export Plug-In . SVG Version: 6.00 Build 0)  -->

<svg
   xmlns:dc="http://purl.org/dc/elements/1.1/"
   xmlns:cc="http://creativecommons.org/ns#"
   xmlns:rdf="http://www.w3.org/1999/02/22-rdf-syntax-ns#"
   xmlns:svg="http://www.w3.org/2000/svg"
   xmlns="http://www.w3.org/2000/svg"
   xmlns:sodipodi="http://sodipodi.sourceforge.net/DTD/sodipodi-0.dtd"
   xmlns:inkscape="http://www.inkscape.org/namespaces/inkscape"
   version="1.1"
   id="Layer_1"
   x="0px"
   y="0px"
   width="64px"
   height="64px"
   viewBox="0 0 64 64"
   enable-background="new 0 0 64 64"
   xml:space="preserve"
   inkscape:version="0.48.4 r9939"
   sodipodi:docname="settings.svg"><metadata
   id="metadata13"><rdf:RDF><cc:Work
       rdf:about=""><dc:format>image/svg+xml</dc:format><dc:type
         rdf:resource="http://purl.org/dc/dcmitype/StillImage" /><dc:title></dc:title></cc:Work></rdf:RDF></metadata><defs
   id="defs11" /><sodipodi:namedview
   pagecolor="#ffffff"
   bordercolor="#666666"
   borderopacity="1"
   objecttolerance="10"
   gridtolerance="10"
   guidetolerance="10"
   inkscape:pageopacity="0"
   inkscape:pageshadow="2"
   inkscape:window-width="1120"
   inkscape:window-height="669"
   id="namedview9"
   showgrid="false"
   inkscape:zoom="3.6875"
   inkscape:cx="-14.508475"
   inkscape:cy="33.627119"
   inkscape:window-x="2415"
   inkscape:window-y="199"
   inkscape:window-maximized="0"
   inkscape:current-layer="Layer_1" />
<g
   id="g3"
   transform="matrix(0.28912702,0,0,0.29505053,-0.92120913,-1.2414608)"
   style="fill:#00a9ea;fill-opacity:1">
	<g
   id="g5"
   style="fill:#00a9ea;fill-opacity:1">
		<path
   d="m 52.084,25.118 -0.942,-2.234 c 3.227,-7.295 3.013,-7.512 2.386,-8.145 l -4.123,-4.028 -0.409,-0.345 h -0.478 c -0.251,0 -1.003,0 -7.271,2.843 l -2.306,-0.93 C 35.959,4.888 35.653,4.888 34.781,4.888 h -5.817 c -0.872,0 -1.211,-0.001 -3.976,7.417 l -2.297,0.933 c -4.236,-1.789 -6.72,-2.694 -7.39,-2.694 l -0.55,0.017 -4.435,4.348 c -0.673,0.633 -0.908,0.856 2.505,8.038 l -0.939,2.227 c -7.551,2.919 -7.551,3.202 -7.551,4.095 v 5.703 c 0,0.895 0,1.21 7.576,3.924 l 0.939,2.223 c -3.227,7.291 -3.01,7.509 -2.383,8.136 l 4.123,4.034 0.41,0.352 h 0.48 c 0.248,0 0.991,0 7.267,-2.848 l 2.303,0.936 c 2.982,7.389 3.288,7.387 4.163,7.387 h 5.817 c 0.89,0 1.205,0 3.979,-7.414 l 2.309,-0.933 c 4.23,1.789 6.708,2.697 7.374,2.697 l 0.554,-0.015 4.469,-4.376 c 0.636,-0.641 0.859,-0.863 -2.535,-8.015 l 0.933,-2.228 C 59.67,35.909 59.67,35.603 59.67,34.73 V 29.033 C 59.669,28.136 59.669,27.822 52.084,25.118 z M 31.999,41.489 c -5.334,0 -9.677,-4.258 -9.677,-9.491 0,-5.229 4.343,-9.484 9.677,-9.484 5.331,0 9.665,4.256 9.665,9.484 -0.001,5.233 -4.335,9.491 -9.665,9.491 z"
   id="path7"
   inkscape:connector-curvature="0"
   style="fill:#00a9ea;fill-opacity:1" />
	</g>
</g>
</svg>