<?xml version="1.0" encoding="UTF-8" standalone="no"?>
<!-- Generator: Adobe Illustrator 16.0.0, SVG Export Plug-In . SVG Version: 6.00 Build 0)  -->

<svg
   xmlns:dc="http://purl.org/dc/elements/1.1/"
   xmlns:cc="http://creativecommons.org/ns#"
   xmlns:rdf="http://www.w3.org/1999/02/22-rdf-syntax-ns#"
   xmlns:svg="http://www.w3.org/2000/svg"
   xmlns="http://www.w3.org/2000/svg"
   xmlns:sodipodi="http://sodipodi.sourceforge.net/DTD/sodipodi-0.dtd"
   xmlns:inkscape="http://www.inkscape.org/namespaces/inkscape"
   version="1.1"
   id="Layer_13"
   x="0px"
   y="0px"
   width="100px"
   height="100px"
   viewBox="0 0 100 100"
   enable-background="new 0 0 100 100"
   xml:space="preserve"
   inkscape:version="0.48.4 r9939"
   sodipodi:docname="show_symbol.svg"><metadata
   id="metadata9"><rdf:RDF><cc:Work
       rdf:about=""><dc:format>image/svg+xml</dc:format><dc:type
         rdf:resource="http://purl.org/dc/dcmitype/StillImage" /></cc:Work></rdf:RDF></metadata><defs
   id="defs7" /><sodipodi:namedview
   pagecolor="#ffffff"
   bordercolor="#666666"
   borderopacity="1"
   objecttolerance="10"
   gridtolerance="10"
   guidetolerance="10"
   inkscape:pageopacity="0"
   inkscape:pageshadow="2"
   inkscape:window-width="1322"
   inkscape:window-height="951"
   id="namedview5"
   showgrid="false"
   inkscape:zoom="2"
   inkscape:cx="-22.627959"
   inkscape:cy="63.661202"
   inkscape:window-x="0"
   inkscape:window-y="0"
   inkscape:window-maximized="0"
   inkscape:current-layer="Layer_13" />
<path
   d="M 16.343492,11.122376 17.537734,9.932505 16.347864,8.738263 15.478986,9.60396 3.7434535,9.58257 3.6160508,9.57437 2.7319761,8.687048 1.537734,9.876919 l 1.1898709,1.194242 0.8509638,-0.847849 11.8907643,0.02166 0.874159,0.87737 z m 0.0038,-2.119211 0.925455,0.928854 -0.928855,0.925456 -0.925455,-0.928856 0.928855,-0.925454 z M 2.7279132,10.80615 1.8024583,9.877295 2.7313132,8.951841 3.6567681,9.880695 2.7279132,10.80615 z"
   id="path3"
   inkscape:connector-curvature="0"
   style="fill:#00a9ea;fill-opacity:1" />
<path
   d="M 8.6965239,1.3067045 C 8.6696919,1.232848 8.6193111,1.19592 8.545454,1.19592 H 7.2462455 c -0.073857,0 -0.1242144,0.036949 -0.1510699,0.1107845 L 5.1211841,7.792674 c -0.013419,0.06043 -0.00673,0.104037 0.020144,0.130895 0.026832,0.04027 0.0705,0.06046 0.1309232,0.06046 h 1.1682854 c 0.080566,0 0.1309232,-0.03695 0.1510656,-0.110785 L 6.9239569,6.704963 h 1.943792 l 0.3323595,1.168281 c 0.020144,0.07386 0.067143,0.110785 0.1409968,0.110785 h 1.1783528 0.01003 c 0.04028,0 0.07557,-0.01342 0.10578,-0.04027 0.03022,-0.02683 0.04532,-0.06379 0.04532,-0.110788 0,-0.01342 -0.0067,-0.04027 -0.02019,-0.08057 L 8.6965073,1.3067141 z M 7.2261036,5.446039 7.8908129,3.069195 8.5655964,5.446039 H 7.2261036 z M 14.084692,3.572766 c -0.315564,-0.288709 -0.758693,-0.43307 -1.329385,-0.43307 -0.355857,0 -0.684856,0.05875 -0.986995,0.176233 -0.302159,0.117501 -0.567355,0.29039 -0.795642,0.518676 -0.05375,0.05371 -0.06378,0.114142 -0.03022,0.181286 l 0.372643,0.644548 c 0.02014,0.04028 0.05705,0.06716 0.110785,0.08057 0.04697,0.01342 0.09064,0 0.130927,-0.04028 0.308856,-0.315569 0.651266,-0.473355 1.027281,-0.473355 0.483409,0 0.725106,0.231663 0.725106,0.694929 V 5.214369 C 13.027211,4.9928 12.67807,4.88205 12.261801,4.88205 c -0.187994,0 -0.37432,0.03187 -0.558957,0.09564 -0.184662,0.06379 -0.349177,0.161147 -0.493503,0.292074 -0.144373,0.130928 -0.261855,0.2988 -0.352497,0.503603 -0.09064,0.204767 -0.135964,0.44478 -0.135964,0.720101 0,0.268539 0.04362,0.503571 0.130896,0.704998 0.08732,0.201424 0.204784,0.37096 0.352529,0.508599 0.147698,0.137633 0.312201,0.241717 0.493466,0.312214 0.181306,0.0705 0.369288,0.105751 0.563999,0.105751 0.194711,0 0.382693,-0.03022 0.563983,-0.09064 0.181315,-0.06043 0.342459,-0.147697 0.483419,-0.261854 v 0.09064 c 0,0.04027 0.0151,0.07556 0.04533,0.10578 0.03022,0.03022 0.06548,0.04532 0.105784,0.04532 h 0.946676 c 0.04027,0 0.07555,-0.0151 0.105779,-0.04532 0.03022,-0.03022 0.04532,-0.06548 0.04532,-0.10578 V 4.801477 c 0,-0.530423 -0.157781,-0.939994 -0.47337,-1.228709 z m -0.775479,3.263112 c -0.147709,0.228283 -0.382709,0.342455 -0.704995,0.342455 -0.194715,0 -0.349125,-0.06211 -0.46325,-0.186317 -0.114158,-0.124215 -0.171216,-0.287053 -0.171216,-0.488493 0,-0.201397 0.05706,-0.365896 0.171216,-0.493466 0.114125,-0.127576 0.268535,-0.191355 0.46325,-0.191355 0.094,0 0.211532,0.02184 0.352502,0.06546 0.140996,0.04366 0.258498,0.142681 0.352493,0.297111 v 0.654606 z"
   id="path3-4"
   inkscape:connector-curvature="0"
   style="fill:#00a9ea;fill-opacity:1" /></svg>