<?xml version="1.0" encoding="UTF-8" standalone="no"?>
<!-- Generator: Adobe Illustrator 16.0.0, SVG Export Plug-In . SVG Version: 6.00 Build 0)  -->

<svg
   xmlns:dc="http://purl.org/dc/elements/1.1/"
   xmlns:cc="http://creativecommons.org/ns#"
   xmlns:rdf="http://www.w3.org/1999/02/22-rdf-syntax-ns#"
   xmlns:svg="http://www.w3.org/2000/svg"
   xmlns="http://www.w3.org/2000/svg"
   xmlns:sodipodi="http://sodipodi.sourceforge.net/DTD/sodipodi-0.dtd"
   xmlns:inkscape="http://www.inkscape.org/namespaces/inkscape"
   version="1.1"
   id="Layer_1"
   x="0px"
   y="0px"
   width="126px"
   height="126px"
   viewBox="0 0 126 126"
   enable-background="new 0 0 126 126"
   xml:space="preserve"
   inkscape:version="0.48.4 r9939"
   sodipodi:docname="men18.svg"><metadata
   id="metadata17"><rdf:RDF><cc:Work
       rdf:about=""><dc:format>image/svg+xml</dc:format><dc:type
         rdf:resource="http://purl.org/dc/dcmitype/StillImage" /></cc:Work></rdf:RDF></metadata><defs
   id="defs15" /><sodipodi:namedview
   pagecolor="#ffffff"
   bordercolor="#666666"
   borderopacity="1"
   objecttolerance="10"
   gridtolerance="10"
   guidetolerance="10"
   inkscape:pageopacity="0"
   inkscape:pageshadow="2"
   inkscape:window-width="1150"
   inkscape:window-height="963"
   id="namedview13"
   showgrid="false"
   inkscape:zoom="2"
   inkscape:cx="-22.75"
   inkscape:cy="63"
   inkscape:window-x="0"
   inkscape:window-y="0"
   inkscape:window-maximized="0"
   inkscape:current-layer="Layer_1" />
<g
   id="g3"
   transform="matrix(0.18059248,0,0,0.18059248,-2.2285325,0.3181869)"
   style="fill:#00a9ea;fill-opacity:1">
	<path
   d="m 31.059,39.635 c 3.117,0 5.684,-2.345 6.042,-5.368 1.433,-1.495 2.991,-2.855 4.65,-4.074 l 5.816,0.334 -2.322,-2.605 c 2.769,-1.579 5.74,-2.791 8.826,-3.587 -0.577,2.323 -0.989,5.307 -1.236,9.264 -0.082,1.303 0.91,2.425 2.211,2.507 0.053,0.003 0.102,0.004 0.15,0.004 1.238,0 2.279,-0.964 2.357,-2.216 0.283,-4.53 0.742,-7.465 1.4,-9.49 v 8.19 c 0,0.636 0.123,1.229 0.34,1.774 -0.018,0.123 -0.029,0.248 -0.029,0.375 l 0.004,22.636 c 0,1.543 1.25,2.794 2.793,2.793 1.543,0 2.793,-1.251 2.793,-2.794 L 64.852,37.952 c 0.111,0.005 0.223,0.014 0.334,0.014 0.021,0 0.043,-0.002 0.064,-0.003 v 19.416 c 0,1.543 1.25,2.794 2.793,2.794 1.543,0 2.793,-1.251 2.793,-2.794 l 0.002,-22.497 c 0.365,-0.679 0.58,-1.446 0.58,-2.288 v -8.122 c 0.646,2.023 1.098,4.943 1.377,9.421 0.078,1.252 1.119,2.216 2.357,2.216 0.049,0 0.1,-0.001 0.148,-0.004 1.303,-0.082 2.293,-1.204 2.213,-2.507 -0.195,-3.118 -0.492,-5.629 -0.891,-7.693 1.56,0.642 3.07,1.392 4.522,2.246 l 0.455,5.398 2.762,-3.271 c 1.625,1.207 3.154,2.55 4.563,4.024 0.374,3.005 2.932,5.332 6.038,5.332 3.361,0 6.088,-2.726 6.088,-6.089 0,-3.363 -2.727,-6.089 -6.088,-6.089 -2.339,0 -4.368,1.32 -5.388,3.255 -1.04,-0.975 -2.141,-1.875 -3.277,-2.727 l 2.242,-2.654 -5.484,0.462 C 80.731,24.389 78.262,23.237 75.689,22.348 74.273,18.32 72.132,16.766 69.233,14.988 69.131,14.925 69.024,14.881 68.919,14.836 68.239,14.383 67.478,14.05 66.7,13.859 l -1.516,1.527 -1.471,-1.544 c -0.006,10e-4 -0.01,10e-4 -0.016,0.003 -0.779,0.186 -1.545,0.517 -2.227,0.968 -0.121,0.049 -0.242,0.103 -0.359,0.174 -2.548,1.563 -4.51,2.953 -5.91,6.001 -4.227,0.865 -8.289,2.449 -11.998,4.646 l -2.798,-3.139 -0.297,5.181 c -1.281,0.933 -2.507,1.944 -3.669,3.03 -1.021,-1.932 -3.047,-3.25 -5.383,-3.25 -3.363,0 -6.09,2.726 -6.09,6.089 0,3.363 2.73,6.09 6.093,6.09 z M 65.171,15.613 H 65.2 l 1.469,9.816 -1.469,2.009 h -0.029 l -1.467,-2.009 1.467,-9.816 z"
   id="path5"
   inkscape:connector-curvature="0"
   style="fill:#00a9ea;fill-opacity:1" />
	<path
   d="M 99.014,41.117 C 98.912,41.054 98.805,41.01 98.7,40.965 98.02,40.512 97.259,40.179 96.481,39.988 l -1.516,1.527 -1.471,-1.544 c -0.006,0.001 -0.01,0.001 -0.016,0.003 -0.779,0.186 -1.545,0.517 -2.227,0.968 -0.121,0.049 -0.242,0.103 -0.359,0.174 -4.727,2.899 -7.441,5.192 -8.279,18.609 -0.082,1.303 0.91,2.425 2.211,2.507 0.053,0.003 0.102,0.004 0.15,0.004 1.238,0 2.279,-0.964 2.357,-2.216 0.283,-4.53 0.742,-7.465 1.4,-9.49 v 8.19 c 0,0.636 0.123,1.229 0.34,1.774 -0.018,0.123 -0.029,0.248 -0.029,0.375 l 0.004,22.636 c 0,0.066 0.015,0.129 0.02,0.194 -1.408,1.49 -2.937,2.856 -4.571,4.082 l -5.548,-0.318 2.253,2.528 c -1.377,0.813 -2.81,1.526 -4.282,2.147 -1.23,-8.255 -3.765,-10.249 -7.683,-12.652 -0.102,-0.063 -0.209,-0.107 -0.314,-0.152 -0.68,-0.453 -1.441,-0.786 -2.219,-0.977 l -1.516,1.527 -1.471,-1.544 c -0.006,10e-4 -0.01,10e-4 -0.016,0.003 -0.779,0.186 -1.545,0.517 -2.227,0.968 -0.121,0.049 -0.242,0.103 -0.359,0.174 -4.141,2.54 -6.738,4.616 -7.881,14.116 -2.943,-0.833 -5.764,-2.044 -8.393,-3.59 l -0.428,-5.072 -2.6,3.078 c -1.834,-1.343 -3.544,-2.863 -5.104,-4.542 l 0.002,-22.469 c 0.365,-0.679 0.58,-1.446 0.58,-2.288 V 50.6 c 0.646,2.023 1.098,4.943 1.377,9.421 0.078,1.252 1.119,2.216 2.357,2.216 0.049,0 0.1,-0.001 0.148,-0.004 1.303,-0.082 2.293,-1.204 2.213,-2.507 C 42.546,46.309 39.831,44.016 35.105,41.117 35.003,41.054 34.896,41.01 34.791,40.965 34.111,40.512 33.35,40.179 32.572,39.988 l -1.516,1.527 -1.471,-1.544 c -0.006,0.001 -0.01,0.001 -0.016,0.003 -0.779,0.186 -1.545,0.517 -2.227,0.968 -0.121,0.049 -0.242,0.103 -0.359,0.174 -4.727,2.899 -7.441,5.192 -8.279,18.609 -0.082,1.303 0.91,2.425 2.211,2.507 0.053,0.003 0.102,0.004 0.15,0.004 1.238,0 2.279,-0.964 2.357,-2.216 0.283,-4.53 0.742,-7.465 1.4,-9.49 v 8.19 c 0,0.636 0.123,1.229 0.34,1.774 -0.018,0.123 -0.029,0.248 -0.029,0.375 l 0.004,22.636 c 0,1.543 1.25,2.794 2.793,2.793 1.543,0 2.793,-1.251 2.793,-2.794 L 30.725,64.08 c 0.111,0.005 0.223,0.014 0.334,0.014 0.021,0 0.043,-0.002 0.064,-0.003 v 19.416 c 0,1.543 1.25,2.794 2.793,2.794 0.396,0 0.772,-0.085 1.113,-0.233 1.5,1.552 3.122,2.972 4.846,4.248 l -2.403,2.845 5.952,-0.502 c 2.974,1.737 6.174,3.076 9.515,3.971 -0.037,0.476 -0.072,0.961 -0.104,1.468 -0.082,1.303 0.91,2.425 2.211,2.507 0.053,0.003 0.102,0.004 0.15,0.004 1.238,0 2.279,-0.964 2.357,-2.216 0.283,-4.53 0.742,-7.465 1.4,-9.49 v 8.19 c 0,0.636 0.123,1.229 0.34,1.774 -0.018,0.123 -0.029,0.248 -0.029,0.375 l 0.004,22.636 c 0,1.543 1.25,2.794 2.793,2.793 1.543,0 2.793,-1.251 2.793,-2.794 l -0.002,-19.426 c 0.111,0.005 0.223,0.014 0.334,0.014 0.021,0 0.043,-0.002 0.064,-0.003 v 19.416 c 0,1.543 1.25,2.794 2.793,2.794 1.543,0 2.793,-1.251 2.793,-2.794 l 0.002,-22.497 c 0.365,-0.679 0.58,-1.446 0.58,-2.288 V 88.97 c 0.646,2.023 1.098,4.943 1.377,9.421 0.078,1.252 1.119,2.216 2.357,2.216 0.049,0 0.1,-0.001 0.148,-0.004 1.303,-0.082 2.293,-1.204 2.213,-2.507 -0.064,-1.023 -0.14,-1.975 -0.226,-2.874 2.06,-0.816 4.048,-1.802 5.939,-2.958 l 2.878,3.229 0.31,-5.401 c 1.592,-1.203 3.09,-2.53 4.483,-3.967 0.295,0.106 0.609,0.174 0.94,0.174 1.543,0 2.793,-1.251 2.793,-2.794 L 94.631,64.08 c 0.111,0.005 0.223,0.014 0.334,0.014 0.021,0 0.043,-0.002 0.064,-0.003 v 19.416 c 0,1.543 1.25,2.794 2.793,2.794 1.543,0 2.793,-1.251 2.793,-2.794 l 0.002,-22.497 c 0.365,-0.679 0.58,-1.446 0.58,-2.288 V 50.6 c 0.646,2.023 1.098,4.943 1.377,9.421 0.078,1.252 1.119,2.216 2.357,2.216 0.049,0 0.1,-0.001 0.148,-0.004 1.303,-0.082 2.293,-1.204 2.213,-2.507 -0.837,-13.417 -3.552,-15.71 -8.278,-18.609 z M 31.073,53.565 h -0.029 l -1.467,-2.009 1.467,-9.816 h 0.029 l 1.469,9.816 -1.469,2.009 z m 34.128,38.371 h -0.029 l -1.467,-2.009 1.467,-9.816 h 0.029 l 1.469,9.816 -1.469,2.009 z M 94.979,53.565 H 94.95 L 93.483,51.556 94.95,41.74 h 0.029 l 1.469,9.816 -1.469,2.009 z"
   id="path7"
   inkscape:connector-curvature="0"
   style="fill:#00a9ea;fill-opacity:1" />
	<circle
   cx="65.186996"
   cy="7.4180002"
   r="6.0890002"
   id="circle9"
   sodipodi:cx="65.186996"
   sodipodi:cy="7.4180002"
   sodipodi:rx="6.0890002"
   sodipodi:ry="6.0890002"
   d="m 71.275997,7.4180002 c 0,3.3628618 -2.726139,6.0889998 -6.089001,6.0889998 -3.362862,0 -6.089,-2.726138 -6.089,-6.0889998 0,-3.3628619 2.726138,-6.0890002 6.089,-6.0890002 3.362862,0 6.089001,2.7261383 6.089001,6.0890002 z"
   style="fill:#00a9ea;fill-opacity:1" />
	<circle
   cx="65.186996"
   cy="71.917"
   r="6.0890002"
   id="circle11"
   sodipodi:cx="65.186996"
   sodipodi:cy="71.917"
   sodipodi:rx="6.0890002"
   sodipodi:ry="6.0890002"
   d="m 71.275997,71.917 c 0,3.362862 -2.726139,6.089 -6.089001,6.089 -3.362862,0 -6.089,-2.726138 -6.089,-6.089 0,-3.362862 2.726138,-6.089 6.089,-6.089 3.362862,0 6.089001,2.726138 6.089001,6.089 z"
   style="fill:#00a9ea;fill-opacity:1" />
</g>
</svg>