<?xml version="1.0" encoding="UTF-8" standalone="no"?>
<!-- Generator: Adobe Illustrator 16.2.1, SVG Export Plug-In . SVG Version: 6.00 Build 0)  -->

<svg
   xmlns:dc="http://purl.org/dc/elements/1.1/"
   xmlns:cc="http://creativecommons.org/ns#"
   xmlns:rdf="http://www.w3.org/1999/02/22-rdf-syntax-ns#"
   xmlns:svg="http://www.w3.org/2000/svg"
   xmlns="http://www.w3.org/2000/svg"
   xmlns:sodipodi="http://sodipodi.sourceforge.net/DTD/sodipodi-0.dtd"
   xmlns:inkscape="http://www.inkscape.org/namespaces/inkscape"
   version="1.2"
   id="Layer_1"
   x="0px"
   y="0px"
   width="24px"
   height="24px"
   viewBox="0 0 24 24"
   xml:space="preserve"
   inkscape:version="0.48.4 r9939"
   sodipodi:docname="zoom_in_16.svg"><metadata
   id="metadata11"><rdf:RDF><cc:Work
       rdf:about=""><dc:format>image/svg+xml</dc:format><dc:type
         rdf:resource="http://purl.org/dc/dcmitype/StillImage" /><dc:title></dc:title></cc:Work></rdf:RDF></metadata><defs
   id="defs9" /><sodipodi:namedview
   pagecolor="#ffffff"
   bordercolor="#666666"
   borderopacity="1"
   objecttolerance="10"
   gridtolerance="10"
   guidetolerance="10"
   inkscape:pageopacity="0"
   inkscape:pageshadow="2"
   inkscape:window-width="955"
   inkscape:window-height="942"
   id="namedview7"
   showgrid="false"
   inkscape:zoom="2"
   inkscape:cx="12"
   inkscape:cy="12"
   inkscape:window-x="2385"
   inkscape:window-y="79"
   inkscape:window-maximized="0"
   inkscape:current-layer="Layer_1" />
<path
   d="M 9.1889952,6.239397 H 7.2847999 V 4.335202 c 0,-0.261827 -0.214222,-0.476049 -0.4760487,-0.476049 -0.2618277,0 -0.4760489,0.214222 -0.4760489,0.476049 V 6.239397 H 4.4285068 c -0.2618268,0 -0.4760488,0.214222 -0.4760488,0.476049 0,0.261827 0.214222,0.476049 0.4760488,0.476049 H 6.3327023 V 9.09569 c 0,0.261827 0.2142212,0.476049 0.4760489,0.476049 0.2618267,0 0.4760487,-0.214222 0.4760487,-0.476049 V 7.191495 h 1.9041953 c 0.2618267,0 0.4760487,-0.214222 0.4760487,-0.476049 0,-0.261827 -0.214222,-0.476049 -0.4760487,-0.476049 z"
   id="path3"
   style="fill:#1bbcf1;fill-opacity:1"
   inkscape:connector-curvature="0" />
<path
   d="M 15.26433,10.957993 13.127822,8.784354 c 0.216126,-0.654091 0.345612,-1.344362 0.345612,-2.068908 0,-3.674145 -2.990538,-6.664683 -6.6646828,-6.664683 -3.674145,0 -6.6646834,2.990538 -6.6646834,6.664683 0,3.674145 2.9905384,6.664683 6.6646834,6.664683 0.725498,0 1.4167213,-0.130437 2.068908,-0.346563 l 2.2821778,2.271704 c 0.572211,0.481762 1.283427,0.745493 2.003213,0.745493 1.644272,0 2.981018,-1.336745 2.981018,-2.981017 0,-0.799762 -0.312288,-1.550016 -0.879738,-2.111753 z m -3.714133,-1.056829 2.372627,2.40976 c 0.19518,0.193276 0.316096,0.462719 0.316096,0.758822 0,0.59506 -0.482714,1.076822 -1.076822,1.076822 -0.297054,0 -0.565546,-0.120916 -0.776912,-0.298007 L 9.9935172,11.457844 C 10.608573,11.04273 11.136987,10.514316 11.550197,9.901164 z M 2.048263,6.715446 c 0,-2.624933 2.1355547,-4.7604878 4.7604882,-4.7604878 2.6249327,0 4.7604878,2.1355548 4.7604878,4.7604878 0,2.624933 -2.1355551,4.760488 -4.7604878,4.760488 -2.6249335,0 -4.7604882,-2.135555 -4.7604882,-4.760488 z"
   id="path5"
   style="fill:#1bbcf1;fill-opacity:1"
   inkscape:connector-curvature="0" />
</svg>