<?xml version="1.0" encoding="UTF-8" standalone="no"?>
<!-- Generator: Adobe Illustrator 16.2.1, SVG Export Plug-In . SVG Version: 6.00 Build 0)  -->

<svg
   xmlns:dc="http://purl.org/dc/elements/1.1/"
   xmlns:cc="http://creativecommons.org/ns#"
   xmlns:rdf="http://www.w3.org/1999/02/22-rdf-syntax-ns#"
   xmlns:svg="http://www.w3.org/2000/svg"
   xmlns="http://www.w3.org/2000/svg"
   xmlns:sodipodi="http://sodipodi.sourceforge.net/DTD/sodipodi-0.dtd"
   xmlns:inkscape="http://www.inkscape.org/namespaces/inkscape"
   version="1.2"
   id="Layer_1"
   x="0px"
   y="0px"
   width="24px"
   height="24px"
   viewBox="0 0 24 24"
   xml:space="preserve"
   inkscape:version="0.48.4 r9939"
   sodipodi:docname="zoom_out.svg"><metadata
   id="metadata13"><rdf:RDF><cc:Work
       rdf:about=""><dc:format>image/svg+xml</dc:format><dc:type
         rdf:resource="http://purl.org/dc/dcmitype/StillImage" /></cc:Work></rdf:RDF></metadata><defs
   id="defs11" /><sodipodi:namedview
   pagecolor="#ffffff"
   bordercolor="#666666"
   borderopacity="1"
   objecttolerance="10"
   gridtolerance="10"
   guidetolerance="10"
   inkscape:pageopacity="0"
   inkscape:pageshadow="2"
   inkscape:window-width="1920"
   inkscape:window-height="1138"
   id="namedview9"
   showgrid="false"
   inkscape:zoom="1"
   inkscape:cx="-5.440678"
   inkscape:cy="12"
   inkscape:window-x="-8"
   inkscape:window-y="-8"
   inkscape:window-maximized="1"
   inkscape:current-layer="Layer_1" />
<g
   id="g3"
   transform="matrix(1.4281464,0,0,1.4281464,-4.6171564,-6.3080994)"
   style="fill:#1bbcf1;fill-opacity:1">
	<path
   d="M 13,12 H 8 C 7.725,12 7.5,11.775 7.5,11.5 7.5,11.225 7.725,11 8,11 h 5 c 0.275,0 0.5,0.225 0.5,0.5 0,0.275 -0.225,0.5 -0.5,0.5 z"
   id="path5"
   inkscape:connector-curvature="0"
   style="fill:#1bbcf1;fill-opacity:1" />
</g>
<path
   d="M 23.061749,16.479404 19.85556,13.218946 c 0.325617,-0.981137 0.519845,-2.016543 0.519845,-3.103362 0,-5.5112169 -4.485807,-9.9970247 -9.997024,-9.9970247 -5.5112173,0 -9.9970251,4.4858078 -9.9970251,9.9970247 0,5.511217 4.4858078,9.997024 9.9970251,9.997024 1.086819,0 2.125082,-0.195656 3.103362,-0.519845 l 3.423267,3.407557 c 0.858316,0.722642 1.925141,1.118239 3.00482,1.118239 2.466408,0 4.471526,-2.005118 4.471526,-4.471526 0,-1.199643 -0.468432,-2.325023 -1.319607,-3.167629 z M 17.49055,14.894161 21.04949,18.5088 c 0.29277,0.289914 0.474145,0.694079 0.474145,1.138233 0,0.892591 -0.72407,1.615233 -1.615233,1.615233 -0.445582,0 -0.848319,-0.181374 -1.165368,-0.44701 L 15.15553,17.229181 c 0.922583,-0.622672 1.715204,-1.415293 2.33502,-2.33502 z M 3.2376487,10.115584 c 0,-3.9373996 3.2033323,-7.1407319 7.1407323,-7.1407319 3.937399,0 7.140732,3.2033323 7.140732,7.1407319 0,3.937399 -3.203333,7.140732 -7.140732,7.140732 -3.9374,0 -7.1407323,-3.203333 -7.1407323,-7.140732 z"
   id="path7"
   inkscape:connector-curvature="0"
   style="fill:#1bbcf1;fill-opacity:1" />
</svg>