<?xml version="1.0" encoding="UTF-8" standalone="no"?>
<!-- Generator: Adobe Illustrator 16.2.1, SVG Export Plug-In . SVG Version: 6.00 Build 0)  -->

<svg
   xmlns:dc="http://purl.org/dc/elements/1.1/"
   xmlns:cc="http://creativecommons.org/ns#"
   xmlns:rdf="http://www.w3.org/1999/02/22-rdf-syntax-ns#"
   xmlns:svg="http://www.w3.org/2000/svg"
   xmlns="http://www.w3.org/2000/svg"
   xmlns:sodipodi="http://sodipodi.sourceforge.net/DTD/sodipodi-0.dtd"
   xmlns:inkscape="http://www.inkscape.org/namespaces/inkscape"
   version="1.2"
   id="Layer_1"
   x="0px"
   y="0px"
   width="24px"
   height="24px"
   viewBox="0 0 24 24"
   xml:space="preserve"
   inkscape:version="0.48.4 r9939"
   sodipodi:docname="zoom_in.svg"><metadata
   id="metadata11"><rdf:RDF><cc:Work
       rdf:about=""><dc:format>image/svg+xml</dc:format><dc:type
         rdf:resource="http://purl.org/dc/dcmitype/StillImage" /></cc:Work></rdf:RDF></metadata><defs
   id="defs9" /><sodipodi:namedview
   pagecolor="#ffffff"
   bordercolor="#666666"
   borderopacity="1"
   objecttolerance="10"
   gridtolerance="10"
   guidetolerance="10"
   inkscape:pageopacity="0"
   inkscape:pageshadow="2"
   inkscape:window-width="955"
   inkscape:window-height="942"
   id="namedview7"
   showgrid="false"
   inkscape:zoom="2"
   inkscape:cx="12"
   inkscape:cy="12"
   inkscape:window-x="2385"
   inkscape:window-y="79"
   inkscape:window-maximized="0"
   inkscape:current-layer="Layer_1" />
<path
   d="M 13.711459,9.333714 H 10.855166 V 6.4774215 c 0,-0.3927405 -0.321333,-0.7140735 -0.714073,-0.7140735 -0.3927415,0 -0.7140734,0.321333 -0.7140734,0.7140735 V 9.333714 H 6.5707264 c -0.3927402,0 -0.7140732,0.321333 -0.7140732,0.714074 0,0.39274 0.321333,0.714073 0.7140732,0.714073 h 2.8562932 v 2.856293 c 0,0.39274 0.3213319,0.714073 0.7140734,0.714073 0.39274,0 0.714073,-0.321333 0.714073,-0.714073 v -2.856293 h 2.856293 c 0.39274,0 0.714073,-0.321333 0.714073,-0.714073 0,-0.392741 -0.321333,-0.714074 -0.714073,-0.714074 z"
   id="path3"
   style="fill:#1bbcf1;fill-opacity:1"
   inkscape:connector-curvature="0" />
<path
   d="M 22.824461,16.411608 19.619699,13.15115 c 0.324189,-0.981137 0.518418,-2.016543 0.518418,-3.103362 0,-5.511218 -4.485807,-9.997025 -9.997024,-9.997025 -5.5112175,0 -9.9970252,4.485807 -9.9970252,9.997025 0,5.511217 4.4858077,9.997024 9.9970252,9.997024 1.088247,0 2.125082,-0.195656 3.103362,-0.519845 l 3.423266,3.407556 c 0.858317,0.722643 1.925141,1.11824 3.00482,1.11824 2.466408,0 4.471527,-2.005118 4.471527,-4.471526 0,-1.199642 -0.468432,-2.325024 -1.319607,-3.167629 z m -5.5712,-1.585244 3.558941,3.61464 c 0.29277,0.289915 0.474144,0.694079 0.474144,1.138233 0,0.892591 -0.72407,1.615233 -1.615233,1.615233 -0.445581,0 -0.848319,-0.181373 -1.165368,-0.44701 l -3.587503,-3.586075 c 0.922583,-0.622671 1.715204,-1.415292 2.335019,-2.335021 z M 3.0003606,10.047788 c 0,-3.9374 3.2033321,-7.1407322 7.1407324,-7.1407322 3.937399,0 7.140731,3.2033322 7.140731,7.1407322 0,3.937399 -3.203332,7.140732 -7.140731,7.140732 -3.9374003,0 -7.1407324,-3.203333 -7.1407324,-7.140732 z"
   id="path5"
   style="fill:#1bbcf1;fill-opacity:1"
   inkscape:connector-curvature="0" />
</svg>